<?xml version="1.0" encoding="UTF-8" standalone="no"?>
<svg
   width="429.030583pt"
   height="325.838697pt"
   viewBox="0 0 429.030583 325.838697"
   version="1.1"
   id="svg3717"
   sodipodi:docname="sinal_input.svg"
   inkscape:version="1.2.1 (9c6d41e410, 2022-07-14)"
   xmlns:inkscape="http://www.inkscape.org/namespaces/inkscape"
   xmlns:sodipodi="http://sodipodi.sourceforge.net/DTD/sodipodi-0.dtd"
   xmlns:xlink="http://www.w3.org/1999/xlink"
   xmlns="http://www.w3.org/2000/svg"
   xmlns:svg="http://www.w3.org/2000/svg"
   xmlns:rdf="http://www.w3.org/1999/02/22-rdf-syntax-ns#"
   xmlns:cc="http://creativecommons.org/ns#"
   xmlns:dc="http://purl.org/dc/elements/1.1/"
   xmlns:ns11="http://www.iki.fi/pav/software/textext/">
  <sodipodi:namedview
     id="namedview3719"
     pagecolor="#ffffff"
     bordercolor="#000000"
     borderopacity="0.25"
     inkscape:showpageshadow="2"
     inkscape:pageopacity="0.0"
     inkscape:pagecheckerboard="0"
     inkscape:deskcolor="#d1d1d1"
     inkscape:document-units="pt"
     showgrid="false"
     inkscape:zoom="1.9265668"
     inkscape:cx="286.00098"
     inkscape:cy="216.96626"
     inkscape:window-width="1920"
     inkscape:window-height="1017"
     inkscape:window-x="-8"
     inkscape:window-y="-8"
     inkscape:window-maximized="1"
     inkscape:current-layer="svg3717" />
  <metadata
     id="metadata3445">
    <rdf:RDF>
      <cc:Work>
        <dc:type
           rdf:resource="http://purl.org/dc/dcmitype/StillImage" />
        <dc:date>2022-11-11T16:44:37.667080</dc:date>
        <dc:format>image/svg+xml</dc:format>
        <dc:creator>
          <cc:Agent>
            <dc:title>Matplotlib v3.5.3, https://matplotlib.org/</dc:title>
          </cc:Agent>
        </dc:creator>
      </cc:Work>
    </rdf:RDF>
  </metadata>
  <defs
     id="defs3449">
    <style
       type="text/css"
       id="style3447">*{stroke-linejoin: round; stroke-linecap: butt}</style>
    <g
       id="id-206c1041-1eec-4987-be7b-3cea20c4acc2">
      <g
         id="id-1fbf614b-a257-4c03-ab82-5a2db68801ff" />
      <g
         id="id-e8e2fb9e-fe26-4016-ba25-058b33cab66e">
        <path
           d="m 2.328125,-4.4375 c 0,-0.1875 0,-0.1875 -0.203125,-0.1875 -0.453125,0.4375 -1.078125,0.4375 -1.359375,0.4375 v 0.25 c 0.15625,0 0.625,0 1,-0.1875 v 3.546875 c 0,0.234375 0,0.328125 -0.6875,0.328125 H 0.8125 V 0 c 0.125,0 0.984375,-0.03125 1.234375,-0.03125 0.21875,0 1.09375,0.03125 1.25,0.03125 V -0.25 H 3.03125 c -0.703125,0 -0.703125,-0.09375 -0.703125,-0.328125 z m 0,0"
           id="id-be9380aa-42a3-4bb5-ab07-d21de62ecb53" />
      </g>
      <g
         id="id-5dd380f6-c260-4158-b69d-c2a68f829b83">
        <path
           d="m 3.6875,-1.140625 v -0.25 H 2.90625 V -4.5 c 0,-0.140625 0,-0.203125 -0.140625,-0.203125 -0.09375,0 -0.125,0 -0.1875,0.109375 l -2.3125,3.203125 v 0.25 h 2.0625 v 0.5625 c 0,0.25 0,0.328125 -0.578125,0.328125 H 1.5625 V 0 C 1.921875,-0.015625 2.359375,-0.03125 2.609375,-0.03125 2.875,-0.03125 3.3125,-0.015625 3.671875,0 v -0.25 h -0.1875 C 2.90625,-0.25 2.90625,-0.328125 2.90625,-0.578125 v -0.5625 z M 2.375,-3.9375 v 2.546875 H 0.53125 Z m 0,0"
           id="id-fd619f20-0f18-4a6e-ad51-664661ec2c78" />
      </g>
      <g
         id="id-ec2b2016-dad9-4ac5-8f82-9bb96e3b5610">
        <path
           d="M 3.59375,-2.21875 C 3.59375,-2.984375 3.5,-3.546875 3.1875,-4.03125 2.96875,-4.34375 2.53125,-4.625 1.984375,-4.625 c -1.625,0 -1.625,1.90625 -1.625,2.40625 0,0.5 0,2.359375 1.625,2.359375 1.609375,0 1.609375,-1.859375 1.609375,-2.359375 z M 1.984375,-0.0625 c -0.328125,0 -0.75,-0.1875 -0.890625,-0.75 C 1,-1.21875 1,-1.796875 1,-2.3125 1,-2.828125 1,-3.359375 1.09375,-3.734375 1.25,-4.28125 1.6875,-4.4375 1.984375,-4.4375 c 0.375,0 0.734375,0.234375 0.859375,0.640625 0.109375,0.375 0.125,0.875 0.125,1.484375 0,0.515625 0,1.03125 -0.09375,1.46875 -0.140625,0.640625 -0.609375,0.78125 -0.890625,0.78125 z m 0,0"
           id="id-cba96857-34ee-428a-8e65-6b0133457b8d" />
      </g>
      <g
         id="id-0a151203-97ba-450a-bc64-b303b5214894" />
      <g
         id="id-5336af8e-fd6d-4cc5-b925-ad4b67ce458c">
        <path
           d="m 6.84375,-3.265625 c 0.15625,0 0.34375,0 0.34375,-0.1875 C 7.1875,-3.65625 7,-3.65625 6.859375,-3.65625 h -5.96875 c -0.140625,0 -0.328125,0 -0.328125,0.203125 0,0.1875 0.1875,0.1875 0.328125,0.1875 z m 0.015625,1.9375 c 0.140625,0 0.328125,0 0.328125,-0.203125 0,-0.1875 -0.1875,-0.1875 -0.34375,-0.1875 H 0.890625 c -0.140625,0 -0.328125,0 -0.328125,0.1875 0,0.203125 0.1875,0.203125 0.328125,0.203125 z m 0,0"
           id="id-07936846-022e-4c26-8f7e-75cdeb569acc" />
      </g>
      <g
         id="id-9e176d8a-f533-478a-9734-c6afcf4aad21">
        <path
           d="m 1.265625,-0.765625 1.0625,-1.03125 c 1.546875,-1.375 2.140625,-1.90625 2.140625,-2.90625 0,-1.140625 -0.890625,-1.9375 -2.109375,-1.9375 -1.125,0 -1.859375,0.921875 -1.859375,1.8125 0,0.546875 0.5,0.546875 0.53125,0.546875 0.171875,0 0.515625,-0.109375 0.515625,-0.53125 0,-0.25 -0.1875,-0.515625 -0.53125,-0.515625 -0.078125,0 -0.09375,0 -0.125,0.015625 0.21875,-0.65625 0.765625,-1.015625 1.34375,-1.015625 0.90625,0 1.328125,0.8125 1.328125,1.625 C 3.5625,-3.90625 3.078125,-3.125 2.515625,-2.5 l -1.90625,2.125 C 0.5,-0.265625 0.5,-0.234375 0.5,0 H 4.203125 L 4.46875,-1.734375 H 4.234375 C 4.171875,-1.4375 4.109375,-1 4,-0.84375 3.9375,-0.765625 3.28125,-0.765625 3.0625,-0.765625 Z m 0,0"
           id="id-6e511436-fc0a-4b79-bd94-297e05e96954" />
      </g>
      <g
         id="id-c794b609-56b1-4a02-9301-fd9e802f42ab">
        <path
           d="m 4.75,-6.078125 c 0.078125,-0.109375 0.078125,-0.125 0.078125,-0.34375 H 2.40625 c -1.203125,0 -1.234375,-0.125 -1.265625,-0.3125 h -0.25 L 0.5625,-4.6875 h 0.25 c 0.03125,-0.15625 0.109375,-0.78125 0.25,-0.90625 0.0625,-0.0625 0.84375,-0.0625 0.96875,-0.0625 h 2.0625 C 3.984375,-5.5 3.203125,-4.40625 2.984375,-4.078125 2.078125,-2.734375 1.75,-1.34375 1.75,-0.328125 c 0,0.09375 0,0.546875 0.46875,0.546875 0.453125,0 0.453125,-0.453125 0.453125,-0.546875 V -0.84375 c 0,-0.546875 0.03125,-1.09375 0.109375,-1.625 0.046875,-0.234375 0.171875,-1.09375 0.625,-1.703125 z m 0,0"
           id="id-fe52e9fd-1953-4540-84bd-9930d1d702c9" />
      </g>
      <g
         id="id-8617c8e0-433d-4685-8fec-d89acb7e35dd">
        <path
           d="M 1.09375,-3.421875 V -0.75 c 0,0.4375 -0.109375,0.4375 -0.78125,0.4375 V 0 c 0.359375,-0.015625 0.859375,-0.03125 1.140625,-0.03125 0.25,0 0.765625,0.015625 1.109375,0.03125 v -0.3125 c -0.671875,0 -0.78125,0 -0.78125,-0.4375 V -2.59375 C 1.78125,-3.625 2.5,-4.1875 3.125,-4.1875 c 0.640625,0 0.75,0.53125 0.75,1.109375 V -0.75 c 0,0.4375 -0.109375,0.4375 -0.78125,0.4375 V 0 c 0.34375,-0.015625 0.859375,-0.03125 1.125,-0.03125 0.25,0 0.78125,0.015625 1.109375,0.03125 v -0.3125 c -0.65625,0 -0.765625,0 -0.765625,-0.4375 v -1.84375 c 0,-1.03125 0.703125,-1.59375 1.34375,-1.59375 0.625,0 0.734375,0.53125 0.734375,1.109375 V -0.75 c 0,0.4375 -0.109375,0.4375 -0.78125,0.4375 V 0 c 0.34375,-0.015625 0.859375,-0.03125 1.125,-0.03125 0.265625,0 0.78125,0.015625 1.125,0.03125 v -0.3125 c -0.515625,0 -0.765625,0 -0.78125,-0.296875 v -1.90625 c 0,-0.859375 0,-1.15625 -0.3125,-1.515625 -0.140625,-0.171875 -0.46875,-0.375 -1.046875,-0.375 -0.828125,0 -1.28125,0.59375 -1.4375,0.984375 C 4.390625,-4.296875 3.65625,-4.40625 3.203125,-4.40625 2.46875,-4.40625 2,-3.984375 1.71875,-3.359375 V -4.40625 L 0.3125,-4.296875 v 0.3125 c 0.703125,0 0.78125,0.0625 0.78125,0.5625 z m 0,0"
           id="id-43f9e58b-5430-4e00-8235-2441ba11357f" />
      </g>
      <g
         id="id-bdb00e97-004e-411e-a435-e8ee17ea19a3">
        <path
           d="m 2.078125,-1.9375 c 0.21875,0.046875 1.03125,0.203125 1.03125,0.921875 0,0.5 -0.34375,0.90625 -1.125,0.90625 -0.84375,0 -1.203125,-0.5625 -1.390625,-1.421875 C 0.5625,-1.65625 0.5625,-1.6875 0.453125,-1.6875 c -0.125,0 -0.125,0.0625 -0.125,0.234375 V -0.125 c 0,0.171875 0,0.234375 0.109375,0.234375 0.046875,0 0.0625,-0.015625 0.25,-0.203125 0.015625,-0.015625 0.015625,-0.03125 0.203125,-0.21875 0.4375,0.40625 0.890625,0.421875 1.09375,0.421875 1.140625,0 1.609375,-0.671875 1.609375,-1.390625 0,-0.515625 -0.296875,-0.828125 -0.421875,-0.9375 C 2.84375,-2.546875 2.453125,-2.625 2.03125,-2.703125 1.46875,-2.8125 0.8125,-2.9375 0.8125,-3.515625 c 0,-0.359375 0.25,-0.765625 1.109375,-0.765625 1.09375,0 1.15625,0.90625 1.171875,1.203125 0,0.09375 0.09375,0.09375 0.109375,0.09375 0.140625,0 0.140625,-0.046875 0.140625,-0.234375 v -1.015625 c 0,-0.15625 0,-0.234375 -0.109375,-0.234375 -0.046875,0 -0.078125,0 -0.203125,0.125 -0.03125,0.03125 -0.125,0.125 -0.171875,0.15625 -0.375,-0.28125 -0.78125,-0.28125 -0.9375,-0.28125 -1.21875,0 -1.59375,0.671875 -1.59375,1.234375 0,0.34375 0.15625,0.625 0.421875,0.84375 0.328125,0.25 0.609375,0.3125 1.328125,0.453125 z m 0,0"
           id="id-a4dee88c-5f00-4a90-88b3-0fe4bfc031d2" />
      </g>
      <g
         id="id-acb94142-5719-41ab-a099-9e7ecd145289" />
      <g
         id="id-10881704-42aa-4cd7-aaa7-5990bccf9bc0">
        <path
           d="m 1.90625,-0.53125 c 0,-0.28125 -0.234375,-0.53125 -0.515625,-0.53125 -0.296875,0 -0.53125,0.25 -0.53125,0.53125 C 0.859375,-0.234375 1.09375,0 1.390625,0 1.671875,0 1.90625,-0.234375 1.90625,-0.53125 Z m 0,0"
           id="id-3a59019f-147e-4df2-9bae-19069f7e366a" />
      </g>
    </g>
  </defs>
  <g
     id="figure_1">
    <g
       id="patch_1">
      <path
         d="M 0 325.838697  L 429.030583 325.838697  L 429.030583 0  L 0 0  z "
         style="fill: #ffffff"
         id="path3451" />
    </g>
    <g
       id="axes_1">
      <g
         id="patch_2">
        <path
           d="M 64.710583 277.529408  L 421.830583 277.529408  L 421.830583 11.417408  L 64.710583 11.417408  z "
           style="fill: #ffffff"
           id="path3454" />
      </g>
      <g
         id="matplotlib.axis_1">
        <g
           id="xtick_1">
          <g
             id="line2d_1">
            <defs
               id="defs3458">
              <path
                 id="m57d4c42e22"
                 d="M 0 0  L 0 3.5  "
                 style="stroke: #000000; stroke-width: 0.8" />
            </defs>
            <g
               id="g3462">
              <use
                 xlink:href="#m57d4c42e22"
                 x="64.710583"
                 y="277.529408"
                 style="stroke: #000000; stroke-width: 0.8"
                 id="use3460" />
            </g>
          </g>
          <g
             id="text_1">
            <!-- $\mathdefault{0.0}$ -->
            <g
               transform="translate(54.738822 295.598996)scale(0.16 -0.16)"
               id="g3475">
              <defs
                 id="defs3467">
                <path
                   id="CMR17-30"
                   d="M 2688 2025  C 2688 2416 2682 3080 2413 3591  C 2176 4039 1798 4198 1466 4198  C 1158 4198 768 4058 525 3597  C 269 3118 243 2524 243 2025  C 243 1661 250 1106 448 619  C 723 -39 1216 -128 1466 -128  C 1760 -128 2208 -7 2470 600  C 2662 1042 2688 1559 2688 2025  z M 1466 -26  C 1056 -26 813 325 723 812  C 653 1188 653 1738 653 2096  C 653 2588 653 2997 736 3387  C 858 3929 1216 4096 1466 4096  C 1728 4096 2067 3923 2189 3400  C 2272 3036 2278 2607 2278 2096  C 2278 1680 2278 1169 2202 792  C 2067 95 1690 -26 1466 -26  z "
                   transform="scale(0.015625)" />
                <path
                   id="CMMI12-3a"
                   d="M 1178 307  C 1178 492 1024 619 870 619  C 685 619 557 466 557 313  C 557 128 710 0 864 0  C 1050 0 1178 153 1178 307  z "
                   transform="scale(0.015625)" />
              </defs>
              <use
                 xlink:href="#CMR17-30"
                 transform="scale(0.996264)"
                 id="use3469" />
              <use
                 xlink:href="#CMMI12-3a"
                 transform="translate(45.690477 0)scale(0.996264)"
                 id="use3471" />
              <use
                 xlink:href="#CMR17-30"
                 transform="translate(72.787654 0)scale(0.996264)"
                 id="use3473" />
            </g>
          </g>
        </g>
        <g
           id="xtick_2">
          <g
             id="line2d_2">
            <g
               id="g3481">
              <use
                 xlink:href="#m57d4c42e22"
                 x="143.276983"
                 y="277.529408"
                 style="stroke: #000000; stroke-width: 0.8"
                 id="use3479" />
            </g>
          </g>
          <g
             id="text_2">
            <!-- $\mathdefault{0.5}$ -->
            <g
               transform="translate(133.305222 295.598996)scale(0.16 -0.16)"
               id="g3493">
              <defs
                 id="defs3485">
                <path
                   id="CMR17-35"
                   d="M 730 3692  C 794 3666 1056 3584 1325 3584  C 1920 3584 2246 3911 2432 4100  C 2432 4157 2432 4192 2394 4192  C 2387 4192 2374 4192 2323 4163  C 2099 4058 1837 3973 1517 3973  C 1325 3973 1037 3999 723 4139  C 653 4171 640 4171 634 4171  C 602 4171 595 4164 595 4037  L 595 2203  C 595 2089 595 2057 659 2057  C 691 2057 704 2070 736 2114  C 941 2401 1222 2522 1542 2522  C 1766 2522 2246 2382 2246 1289  C 2246 1085 2246 715 2054 421  C 1894 159 1645 25 1370 25  C 947 25 518 320 403 814  C 429 807 480 795 506 795  C 589 795 749 840 749 1038  C 749 1210 627 1280 506 1280  C 358 1280 262 1190 262 1011  C 262 454 704 -128 1382 -128  C 2042 -128 2669 440 2669 1264  C 2669 2030 2170 2624 1549 2624  C 1222 2624 947 2503 730 2274  L 730 3692  z "
                   transform="scale(0.015625)" />
              </defs>
              <use
                 xlink:href="#CMR17-30"
                 transform="scale(0.996264)"
                 id="use3487" />
              <use
                 xlink:href="#CMMI12-3a"
                 transform="translate(45.690477 0)scale(0.996264)"
                 id="use3489" />
              <use
                 xlink:href="#CMR17-35"
                 transform="translate(72.787654 0)scale(0.996264)"
                 id="use3491" />
            </g>
          </g>
        </g>
        <g
           id="xtick_3">
          <g
             id="line2d_3">
            <g
               id="g3499">
              <use
                 xlink:href="#m57d4c42e22"
                 x="221.843383"
                 y="277.529408"
                 style="stroke: #000000; stroke-width: 0.8"
                 id="use3497" />
            </g>
          </g>
          <g
             id="text_3">
            <!-- $\mathdefault{1.0}$ -->
            <g
               transform="translate(211.871622 295.598996)scale(0.16 -0.16)"
               id="g3511">
              <defs
                 id="defs3503">
                <path
                   id="CMR17-31"
                   d="M 1702 4058  C 1702 4192 1696 4192 1606 4192  C 1357 3916 979 3827 621 3827  C 602 3827 570 3827 563 3808  C 557 3795 557 3782 557 3648  C 755 3648 1088 3686 1344 3839  L 1344 461  C 1344 236 1331 160 781 160  L 589 160  L 589 0  C 896 0 1216 0 1523 0  C 1830 0 2150 0 2458 0  L 2458 160  L 2266 160  C 1715 160 1702 230 1702 458  L 1702 4058  z "
                   transform="scale(0.015625)" />
              </defs>
              <use
                 xlink:href="#CMR17-31"
                 transform="scale(0.996264)"
                 id="use3505" />
              <use
                 xlink:href="#CMMI12-3a"
                 transform="translate(45.690477 0)scale(0.996264)"
                 id="use3507" />
              <use
                 xlink:href="#CMR17-30"
                 transform="translate(72.787654 0)scale(0.996264)"
                 id="use3509" />
            </g>
          </g>
        </g>
        <g
           id="xtick_4">
          <g
             id="line2d_4">
            <g
               id="g3517">
              <use
                 xlink:href="#m57d4c42e22"
                 x="300.409783"
                 y="277.529408"
                 style="stroke: #000000; stroke-width: 0.8"
                 id="use3515" />
            </g>
          </g>
          <g
             id="text_4">
            <!-- $\mathdefault{1.5}$ -->
            <g
               transform="translate(290.438022 295.598996)scale(0.16 -0.16)"
               id="g3526">
              <use
                 xlink:href="#CMR17-31"
                 transform="scale(0.996264)"
                 id="use3520" />
              <use
                 xlink:href="#CMMI12-3a"
                 transform="translate(45.690477 0)scale(0.996264)"
                 id="use3522" />
              <use
                 xlink:href="#CMR17-35"
                 transform="translate(72.787654 0)scale(0.996264)"
                 id="use3524" />
            </g>
          </g>
        </g>
        <g
           id="xtick_5">
          <g
             id="line2d_5">
            <g
               id="g3532">
              <use
                 xlink:href="#m57d4c42e22"
                 x="378.976183"
                 y="277.529408"
                 style="stroke: #000000; stroke-width: 0.8"
                 id="use3530" />
            </g>
          </g>
          <g
             id="text_5">
            <!-- $\mathdefault{2.0}$ -->
            <g
               transform="translate(369.004422 295.598996)scale(0.16 -0.16)"
               id="g3544">
              <defs
                 id="defs3536">
                <path
                   id="CMR17-32"
                   d="M 2669 989  L 2554 989  C 2490 536 2438 459 2413 420  C 2381 369 1920 369 1830 369  L 602 369  C 832 619 1280 1072 1824 1597  C 2214 1967 2669 2402 2669 3035  C 2669 3790 2067 4224 1395 4224  C 691 4224 262 3604 262 3030  C 262 2780 448 2748 525 2748  C 589 2748 781 2787 781 3010  C 781 3207 614 3264 525 3264  C 486 3264 448 3258 422 3245  C 544 3790 915 4058 1306 4058  C 1862 4058 2227 3617 2227 3035  C 2227 2479 1901 2000 1536 1584  L 262 146  L 262 0  L 2515 0  L 2669 989  z "
                   transform="scale(0.015625)" />
              </defs>
              <use
                 xlink:href="#CMR17-32"
                 transform="scale(0.996264)"
                 id="use3538" />
              <use
                 xlink:href="#CMMI12-3a"
                 transform="translate(45.690477 0)scale(0.996264)"
                 id="use3540" />
              <use
                 xlink:href="#CMR17-30"
                 transform="translate(72.787654 0)scale(0.996264)"
                 id="use3542" />
            </g>
          </g>
        </g>
        <g
           id="text_6">
          <!-- Tempo (ms) -->
          <g
             transform="translate(201.605963 314.653641)scale(0.16 -0.16)"
             id="g3576">
            <defs
               id="defs3556">
              <path
                 id="CMR17-54"
                 d="M 3981 4326  L 288 4326  L 179 2918  L 294 2918  C 378 3976 467 4160 1453 4160  C 1568 4160 1754 4160 1805 4154  C 1926 4135 1926 4058 1926 3912  L 1926 459  C 1926 230 1907 160 1376 160  L 1197 160  L 1197 0  C 1504 0 1824 0 2138 0  C 2451 0 2771 0 3078 0  L 3078 160  L 2899 160  C 2368 160 2349 230 2349 459  L 2349 3912  C 2349 4052 2349 4129 2464 4154  C 2515 4160 2701 4160 2816 4160  C 3795 4160 3891 3976 3974 2918  L 4090 2918  L 3981 4326  z "
                 transform="scale(0.015625)" />
              <path
                 id="CMR17-65"
                 d="M 2438 1472  C 2464 1498 2464 1511 2464 1576  C 2464 2238 2118 2816 1389 2816  C 710 2816 173 2169 173 1383  C 173 551 781 -64 1459 -64  C 2176 -64 2458 607 2458 740  C 2458 784 2419 784 2406 784  C 2362 784 2355 771 2330 696  C 2189 265 1837 51 1504 51  C 1229 51 954 203 781 480  C 582 803 582 1176 582 1472  L 2438 1472  z M 589 1568  C 634 2505 1126 2714 1382 2714  C 1818 2714 2112 2297 2118 1568  L 589 1568  z "
                 transform="scale(0.015625)" />
              <path
                 id="CMR17-6d"
                 d="M 4326 1933  C 4326 2252 4269 2790 3507 2790  C 3072 2790 2771 2496 2656 2151  L 2650 2151  C 2573 2676 2195 2790 1837 2790  C 1331 2790 1069 2400 973 2144  L 966 2144  L 966 2790  L 211 2720  L 211 2554  C 589 2554 646 2515 646 2208  L 646 428  C 646 184 621 153 211 153  L 211 -13  C 365 0 646 0 813 0  C 979 0 1267 0 1421 -13  L 1421 153  C 1011 153 986 178 986 428  L 986 1658  C 986 2247 1344 2688 1792 2688  C 2266 2688 2317 2266 2317 1958  L 2317 428  C 2317 184 2291 153 1882 153  L 1882 -13  C 2035 0 2317 0 2483 0  C 2650 0 2938 0 3091 -13  L 3091 153  C 2682 153 2656 178 2656 428  L 2656 1658  C 2656 2247 3014 2688 3462 2688  C 3936 2688 3987 2266 3987 1958  L 3987 428  C 3987 184 3962 153 3552 153  L 3552 -13  C 3706 0 3987 0 4154 0  C 4320 0 4608 0 4762 -13  L 4762 153  C 4352 153 4326 178 4326 428  L 4326 1933  z "
                 transform="scale(0.015625)" />
              <path
                 id="CMR17-70"
                 d="M 1408 -1063  C 998 -1063 973 -1037 973 -789  L 973 402  C 1158 134 1427 -38 1766 -38  C 2406 -38 3053 523 3053 1388  C 3053 2191 2496 2802 1837 2802  C 1453 2802 1139 2592 960 2338  L 960 2802  L 198 2732  L 198 2567  C 576 2567 634 2528 634 2223  L 634 -789  C 634 -1031 608 -1063 198 -1063  L 198 -1228  C 352 -1216 634 -1216 800 -1216  C 966 -1216 1254 -1216 1408 -1228  L 1408 -1063  z M 973 2012  C 973 2102 973 2235 1222 2471  C 1254 2497 1472 2688 1792 2688  C 2259 2688 2643 2108 2643 1382  C 2643 656 2234 64 1728 64  C 1498 64 1248 172 1056 472  C 973 612 973 650 973 752  L 973 2012  z "
                 transform="scale(0.015625)" />
              <path
                 id="CMR17-6f"
                 d="M 2758 1356  C 2758 2176 2163 2816 1466 2816  C 768 2816 173 2176 173 1356  C 173 551 768 -64 1466 -64  C 2163 -64 2758 551 2758 1356  z M 1466 51  C 1165 51 909 230 762 480  C 602 767 582 1126 582 1408  C 582 1677 595 2010 762 2298  C 890 2509 1139 2714 1466 2714  C 1754 2714 1997 2554 2150 2330  C 2349 2029 2349 1607 2349 1408  C 2349 1158 2336 775 2163 467  C 1984 173 1709 51 1466 51  z "
                 transform="scale(0.015625)" />
              <path
                 id="CMR17-28"
                 d="M 1958 -1561  C 1958 -1555 1958 -1542 1939 -1523  C 1645 -1224 858 -407 858 1581  C 858 3569 1632 4379 1946 4697  C 1946 4704 1958 4717 1958 4736  C 1958 4755 1939 4768 1914 4768  C 1843 4768 1299 4296 986 3594  C 666 2887 576 2199 576 1588  C 576 1128 621 351 1005 -471  C 1312 -1135 1837 -1600 1914 -1600  C 1946 -1600 1958 -1587 1958 -1561  z "
                 transform="scale(0.015625)" />
              <path
                 id="CMR17-73"
                 d="M 1978 2697  C 1978 2813 1971 2819 1933 2819  C 1907 2819 1901 2813 1824 2717  C 1805 2691 1747 2626 1728 2601  C 1523 2819 1235 2819 1126 2819  C 416 2819 160 2447 160 2076  C 160 1498 813 1365 998 1325  C 1402 1243 1542 1217 1677 1101  C 1760 1025 1901 884 1901 654  C 1901 384 1747 38 1158 38  C 602 38 403 460 288 1021  C 269 1110 269 1117 218 1117  C 166 1117 160 1110 160 983  L 160 63  C 160 -51 166 -58 205 -58  C 237 -58 243 -51 275 0  C 314 57 410 211 448 276  C 576 103 800 -64 1158 -64  C 1792 -64 2131 283 2131 784  C 2131 1112 1958 1285 1875 1362  C 1683 1561 1459 1606 1190 1657  C 838 1735 390 1825 390 2217  C 390 2383 480 2737 1126 2737  C 1811 2737 1850 2094 1862 1888  C 1869 1856 1901 1849 1920 1849  C 1978 1849 1978 1869 1978 1978  L 1978 2697  z "
                 transform="scale(0.015625)" />
              <path
                 id="CMR17-29"
                 d="M 1683 1581  C 1683 2040 1638 2817 1254 3639  C 947 4303 422 4768 346 4768  C 326 4768 301 4761 301 4729  C 301 4717 307 4710 314 4697  C 621 4378 1402 3568 1402 1584  C 1402 -407 627 -1217 314 -1537  C 307 -1549 301 -1556 301 -1568  C 301 -1600 326 -1600 346 -1600  C 416 -1600 960 -1128 1274 -426  C 1594 281 1683 969 1683 1581  z "
                 transform="scale(0.015625)" />
            </defs>
            <use
               xlink:href="#CMR17-54"
               transform="scale(0.996264)"
               id="use3558" />
            <use
               xlink:href="#CMR17-65"
               transform="translate(58.702625 0)scale(0.996264)"
               id="use3560" />
            <use
               xlink:href="#CMR17-6d"
               transform="translate(99.188286 0)scale(0.996264)"
               id="use3562" />
            <use
               xlink:href="#CMR17-70"
               transform="translate(176.107875 0)scale(0.996264)"
               id="use3564" />
            <use
               xlink:href="#CMR17-6f"
               transform="translate(229.605684 0)scale(0.996264)"
               id="use3566" />
            <use
               xlink:href="#CMR17-28"
               transform="translate(305.372127 0)scale(0.996264)"
               id="use3568" />
            <use
               xlink:href="#CMR17-6d"
               transform="translate(340.652895 0)scale(0.996264)"
               id="use3570" />
            <use
               xlink:href="#CMR17-73"
               transform="translate(417.572485 0)scale(0.996264)"
               id="use3572" />
            <use
               xlink:href="#CMR17-29"
               transform="translate(453.373823 0)scale(0.996264)"
               id="use3574" />
          </g>
        </g>
      </g>
      <g
         id="matplotlib.axis_2">
        <g
           id="ytick_1">
          <g
             id="line2d_6">
            <defs
               id="defs3581">
              <path
                 id="mbd31815979"
                 d="M 0 0  L -3.5 0  "
                 style="stroke: #000000; stroke-width: 0.8" />
            </defs>
            <g
               id="g3585">
              <use
                 xlink:href="#mbd31815979"
                 x="64.710583"
                 y="276.212022"
                 style="stroke: #000000; stroke-width: 0.8"
                 id="use3583" />
            </g>
          </g>
          <g
             id="text_7">
            <!-- $\mathdefault{&#8722;1.0}$ -->
            <g
               transform="translate(25.369064 281.746816)scale(0.16 -0.16)"
               id="g3599">
              <defs
                 id="defs3589">
                <path
                   id="CMSY10-0"
                   d="M 4218 1472  C 4326 1472 4442 1472 4442 1600  C 4442 1728 4326 1728 4218 1728  L 755 1728  C 646 1728 531 1728 531 1600  C 531 1472 646 1472 755 1472  L 4218 1472  z "
                   transform="scale(0.015625)" />
              </defs>
              <use
                 xlink:href="#CMSY10-0"
                 transform="scale(0.996264)"
                 id="use3591" />
              <use
                 xlink:href="#CMR17-31"
                 transform="translate(77.487468 0)scale(0.996264)"
                 id="use3593" />
              <use
                 xlink:href="#CMMI12-3a"
                 transform="translate(123.177945 0)scale(0.996264)"
                 id="use3595" />
              <use
                 xlink:href="#CMR17-30"
                 transform="translate(150.275122 0)scale(0.996264)"
                 id="use3597" />
            </g>
          </g>
        </g>
        <g
           id="ytick_2">
          <g
             id="line2d_7">
            <g
               id="g3605">
              <use
                 xlink:href="#mbd31815979"
                 x="64.710583"
                 y="210.342715"
                 style="stroke: #000000; stroke-width: 0.8"
                 id="use3603" />
            </g>
          </g>
          <g
             id="text_8">
            <!-- $\mathdefault{&#8722;0.5}$ -->
            <g
               transform="translate(25.369064 215.877509)scale(0.16 -0.16)"
               id="g3616">
              <use
                 xlink:href="#CMSY10-0"
                 transform="scale(0.996264)"
                 id="use3608" />
              <use
                 xlink:href="#CMR17-30"
                 transform="translate(77.487468 0)scale(0.996264)"
                 id="use3610" />
              <use
                 xlink:href="#CMMI12-3a"
                 transform="translate(123.177945 0)scale(0.996264)"
                 id="use3612" />
              <use
                 xlink:href="#CMR17-35"
                 transform="translate(150.275122 0)scale(0.996264)"
                 id="use3614" />
            </g>
          </g>
        </g>
        <g
           id="ytick_3">
          <g
             id="line2d_8">
            <g
               id="g3622">
              <use
                 xlink:href="#mbd31815979"
                 x="64.710583"
                 y="144.473408"
                 style="stroke: #000000; stroke-width: 0.8"
                 id="use3620" />
            </g>
          </g>
          <g
             id="text_9">
            <!-- $\mathdefault{0.0}$ -->
            <g
               transform="translate(37.767061 150.008202)scale(0.16 -0.16)"
               id="g3631">
              <use
                 xlink:href="#CMR17-30"
                 transform="scale(0.996264)"
                 id="use3625" />
              <use
                 xlink:href="#CMMI12-3a"
                 transform="translate(45.690477 0)scale(0.996264)"
                 id="use3627" />
              <use
                 xlink:href="#CMR17-30"
                 transform="translate(72.787654 0)scale(0.996264)"
                 id="use3629" />
            </g>
          </g>
        </g>
        <g
           id="ytick_4">
          <g
             id="line2d_9">
            <g
               id="g3637">
              <use
                 xlink:href="#mbd31815979"
                 x="64.710583"
                 y="78.604101"
                 style="stroke: #000000; stroke-width: 0.8"
                 id="use3635" />
            </g>
          </g>
          <g
             id="text_10">
            <!-- $\mathdefault{0.5}$ -->
            <g
               transform="translate(37.767061 84.138895)scale(0.16 -0.16)"
               id="g3646">
              <use
                 xlink:href="#CMR17-30"
                 transform="scale(0.996264)"
                 id="use3640" />
              <use
                 xlink:href="#CMMI12-3a"
                 transform="translate(45.690477 0)scale(0.996264)"
                 id="use3642" />
              <use
                 xlink:href="#CMR17-35"
                 transform="translate(72.787654 0)scale(0.996264)"
                 id="use3644" />
            </g>
          </g>
        </g>
        <g
           id="ytick_5">
          <g
             id="line2d_10">
            <g
               id="g3652">
              <use
                 xlink:href="#mbd31815979"
                 x="64.710583"
                 y="12.734794"
                 style="stroke: #000000; stroke-width: 0.8"
                 id="use3650" />
            </g>
          </g>
          <g
             id="text_11">
            <!-- $\mathdefault{1.0}$ -->
            <g
               transform="translate(37.767061 18.269588)scale(0.16 -0.16)"
               id="g3661">
              <use
                 xlink:href="#CMR17-31"
                 transform="scale(0.996264)"
                 id="use3655" />
              <use
                 xlink:href="#CMMI12-3a"
                 transform="translate(45.690477 0)scale(0.996264)"
                 id="use3657" />
              <use
                 xlink:href="#CMR17-30"
                 transform="translate(72.787654 0)scale(0.996264)"
                 id="use3659" />
            </g>
          </g>
        </g>
        <g
           id="text_12">
          <!-- Amplitude -->
          <g
             transform="translate(18.269588 180.672477)rotate(-90)scale(0.16 -0.16)"
             id="g3691">
            <defs
               id="defs3671">
              <path
                 id="CMR17-41"
                 d="M 2323 4378  C 2291 4461 2278 4480 2214 4480  C 2150 4480 2138 4461 2106 4378  L 749 566  C 627 223 371 153 147 153  L 147 -13  C 262 0 518 0 640 0  C 800 0 1056 0 1210 -13  L 1210 153  C 909 153 864 361 864 439  C 864 497 877 530 890 569  L 1229 1536  L 2906 1536  L 3290 442  C 3322 365 3322 352 3322 327  C 3322 153 3046 153 2925 153  L 2925 0  C 3110 0 3443 0 3642 0  C 3808 0 4128 0 4282 -13  L 4282 153  C 3942 153 3827 153 3744 387  L 2323 4378  z M 2067 3893  L 2848 1702  L 1286 1702  L 2067 3893  z "
                 transform="scale(0.015625)" />
              <path
                 id="CMR17-6c"
                 d="M 979 4396  L 218 4326  L 218 4160  C 595 4160 653 4122 653 3817  L 653 426  C 653 184 627 153 218 153  L 218 -13  C 371 0 653 0 813 0  C 979 0 1261 0 1414 -13  L 1414 153  C 1005 153 979 178 979 426  L 979 4396  z "
                 transform="scale(0.015625)" />
              <path
                 id="CMR17-69"
                 d="M 992 3909  C 992 4049 877 4170 730 4170  C 589 4170 467 4056 467 3909  C 467 3769 582 3648 730 3648  C 870 3648 992 3763 992 3909  z M 243 2706  L 243 2541  C 602 2541 653 2502 653 2197  L 653 427  C 653 184 627 153 218 153  L 218 -13  C 371 0 646 0 806 0  C 960 0 1222 0 1370 -13  L 1370 153  C 992 153 979 191 979 420  L 979 2776  L 243 2706  z "
                 transform="scale(0.015625)" />
              <path
                 id="CMR17-74"
                 d="M 966 2560  L 1862 2560  L 1862 2725  L 966 2725  L 966 3904  L 851 3904  C 838 3245 614 2668 70 2668  L 70 2560  L 627 2560  L 627 771  C 627 650 627 -64 1370 -64  C 1747 -64 1965 306 1965 777  L 1965 1140  L 1850 1140  L 1850 783  C 1850 344 1677 51 1408 51  C 1222 51 966 178 966 758  L 966 2560  z "
                 transform="scale(0.015625)" />
              <path
                 id="CMR17-75"
                 d="M 1882 2693  L 1882 2528  C 2259 2528 2317 2489 2317 2186  L 2317 1032  C 2317 500 2029 38 1555 38  C 1030 38 986 348 986 678  L 986 2763  L 211 2693  L 211 2528  C 467 2528 640 2528 646 2274  L 646 1058  C 646 633 646 361 813 183  C 896 101 1056 -64 1517 -64  C 2061 -64 2272 377 2323 506  L 2330 506  L 2330 -63  L 3091 -63  L 3091 128  C 2714 128 2656 166 2656 473  L 2656 2763  L 1882 2693  z "
                 transform="scale(0.015625)" />
              <path
                 id="CMR17-64"
                 d="M 1869 4326  L 1869 4160  C 2246 4160 2304 4122 2304 3820  L 2304 2345  C 2278 2377 2016 2790 1498 2790  C 845 2790 211 2208 211 1364  C 211 525 806 -64 1434 -64  C 1978 -64 2259 337 2291 380  L 2291 -63  L 3066 -63  L 3066 128  C 2688 128 2630 166 2630 473  L 2630 4396  L 1869 4326  z M 2291 755  C 2291 563 2176 390 2029 262  C 1811 70 1594 38 1472 38  C 1286 38 621 134 621 1356  C 621 2612 1363 2688 1530 2688  C 1824 2688 2061 2522 2208 2291  C 2291 2157 2291 2138 2291 2023  L 2291 755  z "
                 transform="scale(0.015625)" />
            </defs>
            <use
               xlink:href="#CMR17-41"
               transform="scale(0.996264)"
               id="use3673" />
            <use
               xlink:href="#CMR17-6d"
               transform="translate(69.07243 0)scale(0.996264)"
               id="use3675" />
            <use
               xlink:href="#CMR17-70"
               transform="translate(145.99202 0)scale(0.996264)"
               id="use3677" />
            <use
               xlink:href="#CMR17-6c"
               transform="translate(196.887389 0)scale(0.996264)"
               id="use3679" />
            <use
               xlink:href="#CMR17-69"
               transform="translate(221.758448 0)scale(0.996264)"
               id="use3681" />
            <use
               xlink:href="#CMR17-74"
               transform="translate(246.629506 0)scale(0.996264)"
               id="use3683" />
            <use
               xlink:href="#CMR17-75"
               transform="translate(281.910274 0)scale(0.996264)"
               id="use3685" />
            <use
               xlink:href="#CMR17-64"
               transform="translate(332.805644 0)scale(0.996264)"
               id="use3687" />
            <use
               xlink:href="#CMR17-65"
               transform="translate(383.701014 0)scale(0.996264)"
               id="use3689" />
          </g>
        </g>
      </g>
      <g
         id="line2d_11">
        <path
           d="M 64.710583 144.473408  L 77.995447 113.961154  L 85.030711 98.372033  L 90.869623 85.959578  L 96.030007 75.499073  L 100.726135 66.471295  L 105.065143 58.601737  L 109.118455 51.701361  L 112.939639 45.627451  L 116.546551 40.303429  L 119.974903 35.631408  L 123.242551 31.546639  L 126.367351 27.989302  L 129.367159 24.905288  L 132.241975 22.262139  L 135.027511 19.999191  L 137.705911 18.105107  L 140.312887 16.530945  L 142.848439 15.258047  L 145.312567 14.267333  L 147.723127 13.534918  L 150.097975 13.043629  L 152.454967 12.782873  L 154.794103 12.747959  L 157.133239 12.936119  L 159.472375 13.347036  L 161.847223 13.991393  L 164.257783 14.878362  L 166.704055 16.016739  L 169.221751 17.43677  L 171.810871 19.156987  L 174.471415 21.195475  L 177.221239 23.586128  L 180.078199 26.369491  L 183.042295 29.572461  L 186.131383 33.242817  L 189.363319 37.434326  L 192.738103 42.180151  L 196.291447 47.56639  L 200.041207 53.660523  L 204.023095 60.56385  L 208.272823 68.384781  L 212.861815 77.306157  L 217.879351 87.559325  L 223.486135 99.537164  L 230.039287 114.081952  L 238.663735 133.807274  L 258.466039 179.275596  L 265.126327 193.891773  L 270.768823 205.751766  L 275.804215 215.829566  L 280.411063 224.561303  L 284.678647 232.182012  L 288.678391 238.876531  L 292.446007 244.755671  L 296.017207 249.922071  L 299.409847 254.444982  L 302.641783 258.389558  L 305.730871 261.815771  L 308.694967 264.777689  L 311.551927 267.323041  L 314.301751 269.479921  L 316.962295 271.28837  L 319.533559 272.772177  L 322.051255 273.970711  L 324.497527 274.891914  L 326.908087 275.563387  L 329.282935 275.994368  L 331.622071 276.194443  L 333.961207 276.171451  L 336.300343 275.92543  L 338.657335 275.452365  L 341.032183 274.747945  L 343.442743 273.800379  L 345.906871 272.591371  L 348.442423 271.096008  L 351.049399 269.295859  L 353.727799 267.172986  L 356.495479 264.693214  L 359.370295 261.815771  L 362.370103 258.493354  L 365.494903 254.694987  L 368.762551 250.366926  L 372.190903 245.450134  L 375.797815 239.881147  L 379.601143 233.593323  L 383.654455 226.453829  L 387.993463 218.35025  L 392.671735 209.132369  L 397.814263 198.497072  L 403.617463 185.969295  L 410.527735 170.498988  L 420.330679 147.949505  L 421.812727 144.514795  L 421.812727 144.514795  "
           clip-path="url(#pcac1173673)"
           style="fill: none; stroke: #000000; stroke-width: 2; stroke-linecap: square"
           id="path3695" />
      </g>
      <g
         id="patch_3">
        <path
           d="M 64.710583 277.529408  L 64.710583 11.417408  "
           style="fill: none; stroke: #000000; stroke-width: 0.8; stroke-linejoin: miter; stroke-linecap: square"
           id="path3698" />
      </g>
      <g
         id="patch_4">
        <path
           d="M 421.830583 277.529408  L 421.830583 11.417408  "
           style="fill: none; stroke: #000000; stroke-width: 0.8; stroke-linejoin: miter; stroke-linecap: square"
           id="path3701" />
      </g>
      <g
         id="patch_5">
        <path
           d="M 64.710583 277.529408  L 421.830583 277.529408  "
           style="fill: none; stroke: #000000; stroke-width: 0.8; stroke-linejoin: miter; stroke-linecap: square"
           id="path3704" />
      </g>
      <g
         id="patch_6">
        <path
           d="M 64.710583 11.417408  L 421.830583 11.417408  "
           style="fill: none; stroke: #000000; stroke-width: 0.8; stroke-linejoin: miter; stroke-linecap: square"
           id="path3707" />
      </g>
    </g>
  </g>
  <defs
     id="defs3715">
    <clipPath
       id="pcac1173673">
      <rect
         x="64.710583"
         y="11.417408"
         width="357.12"
         height="266.112"
         id="rect3712" />
    </clipPath>
  </defs>
  <g
     ns11:version="1.8.2"
     ns11:texconverter="pdflatex"
     ns11:pdfconverter="inkscape"
     ns11:text="Frequ\xeancia = 440 hz\n\nPer\xedodo = 2,27 ms "
     ns11:preamble="C:\Users\julio\AppData\Roaming\inkscape\extensions\textext\default_packages.tex"
     ns11:scale="1.0"
     ns11:alignment="middle center"
     ns11:stroke-to-path="0"
     transform="translate(277.93431,60.841021)"
     ns11:jacobian_sqrt="1.0"
     id="g7193">
    <defs
       id="id-868975bc-3c08-499b-8500-49620fbb80fe">
      <g
         id="id-d9b3b087-9b5e-4457-8234-fdd0ff58741f">
        <g
           id="id-1d33bda9-c4ce-4484-b712-6eb96e48fe43" />
        <g
           id="id-45e8eb15-2022-48a5-b4dd-e2e6bc61b905">
          <path
             d="m 5.796875,-6.78125 h -5.46875 v 0.3125 H 0.5625 c 0.765625,0 0.796875,0.109375 0.796875,0.46875 v 5.21875 c 0,0.359375 -0.03125,0.46875 -0.796875,0.46875 H 0.328125 V 0 c 0.34375,-0.03125 1.125,-0.03125 1.515625,-0.03125 0.40625,0 1.3125,0 1.671875,0.03125 V -0.3125 H 3.1875 C 2.25,-0.3125 2.25,-0.4375 2.25,-0.78125 v -2.453125 h 0.84375 c 0.96875,0 1.0625,0.3125 1.0625,1.15625 h 0.25 V -4.71875 h -0.25 c 0,0.84375 -0.09375,1.171875 -1.0625,1.171875 H 2.25 v -2.53125 c 0,-0.328125 0.015625,-0.390625 0.484375,-0.390625 h 1.1875 c 1.5,0 1.75,0.5625 1.90625,1.9375 h 0.25 z m 0,0"
             id="id-0545f2f9-4ebe-4e28-bac4-f2367813fa84" />
        </g>
        <g
           id="id-2611eadb-65b9-4c16-be60-f4379c38583a">
          <path
             d="M 1.671875,-3.3125 V -4.40625 L 0.28125,-4.296875 v 0.3125 c 0.703125,0 0.78125,0.0625 0.78125,0.5625 V -0.75 c 0,0.4375 -0.109375,0.4375 -0.78125,0.4375 V 0 c 0.390625,-0.015625 0.859375,-0.03125 1.140625,-0.03125 0.390625,0 0.859375,0 1.265625,0.03125 V -0.3125 H 2.46875 c -0.734375,0 -0.75,-0.109375 -0.75,-0.46875 V -2.3125 c 0,-0.984375 0.421875,-1.875 1.171875,-1.875 0.0625,0 0.09375,0 0.109375,0.015625 -0.03125,0 -0.234375,0.125 -0.234375,0.390625 0,0.265625 0.21875,0.421875 0.4375,0.421875 0.171875,0 0.421875,-0.125 0.421875,-0.4375 0,-0.3125 -0.3125,-0.609375 -0.734375,-0.609375 -0.734375,0 -1.09375,0.671875 -1.21875,1.09375 z m 0,0"
             id="id-46f68b07-6c93-4c95-9f12-c3a129b0a472" />
        </g>
        <g
           id="id-399ae9c6-f500-49d7-89cf-099cc3beb480">
          <path
             d="M 1.109375,-2.515625 C 1.171875,-4 2.015625,-4.25 2.359375,-4.25 c 1.015625,0 1.125,1.34375 1.125,1.734375 z m 0,0.21875 h 2.78125 c 0.21875,0 0.25,0 0.25,-0.21875 0,-0.984375 -0.546875,-1.953125 -1.78125,-1.953125 -1.15625,0 -2.078125,1.03125 -2.078125,2.28125 0,1.328125 1.046875,2.296875 2.1875,2.296875 C 3.6875,0.109375 4.140625,-1 4.140625,-1.1875 4.140625,-1.28125 4.0625,-1.3125 4,-1.3125 c -0.078125,0 -0.109375,0.0625 -0.125,0.140625 -0.34375,1.03125 -1.25,1.03125 -1.34375,1.03125 -0.5,0 -0.890625,-0.296875 -1.125,-0.671875 -0.296875,-0.46875 -0.296875,-1.125 -0.296875,-1.484375 z m 0,0"
             id="id-ef72fb60-8f2c-4784-90e0-037b9d9b70fc" />
        </g>
        <g
           id="id-4f71d5fc-e0f9-4ac4-9d95-010ce60a90e2">
          <path
             d="m 3.78125,-0.609375 v 1.78125 C 3.78125,1.625 3.671875,1.625 3.015625,1.625 V 1.9375 C 3.34375,1.921875 3.875,1.90625 4.125,1.90625 c 0.265625,0 0.78125,0.015625 1.125,0.03125 V 1.625 c -0.671875,0 -0.78125,0 -0.78125,-0.453125 V -4.40625 H 4.25 L 3.875,-3.5 C 3.75,-3.78125 3.34375,-4.40625 2.546875,-4.40625 c -1.15625,0 -2.203125,0.96875 -2.203125,2.265625 0,1.25 0.96875,2.25 2.125,2.25 0.6875,0 1.09375,-0.421875 1.3125,-0.71875 z m 0.03125,-2.15625 v 1.40625 C 3.8125,-1.03125 3.640625,-0.75 3.421875,-0.515625 3.296875,-0.375 2.96875,-0.109375 2.5,-0.109375 1.78125,-0.109375 1.171875,-1 1.171875,-2.140625 c 0,-1.1875 0.6875,-2.015625 1.4375,-2.015625 0.796875,0 1.203125,0.859375 1.203125,1.390625 z m 0,0"
             id="id-6af13509-7993-48bc-a8ba-34e61b475985" />
        </g>
        <g
           id="id-0861134c-db52-4d43-83aa-150ddcb82e83">
          <path
             d="M 3.890625,-0.78125 V 0.109375 L 5.328125,0 V -0.3125 C 4.640625,-0.3125 4.5625,-0.375 4.5625,-0.875 v -3.53125 l -1.46875,0.109375 v 0.3125 c 0.6875,0 0.78125,0.0625 0.78125,0.5625 v 1.765625 c 0,0.875 -0.484375,1.546875 -1.21875,1.546875 -0.828125,0 -0.875,-0.46875 -0.875,-0.984375 v -3.3125 L 0.3125,-4.296875 v 0.3125 c 0.78125,0 0.78125,0.03125 0.78125,0.90625 v 1.5 c 0,0.78125 0,1.6875 1.515625,1.6875 0.5625,0 1,-0.28125 1.28125,-0.890625 z m 0,0"
             id="id-8e3675ea-7555-4cdd-86b5-723078fc3433" />
        </g>
        <g
           id="id-f2ad7898-ce33-4bc7-b977-3a977de00727">
          <path
             d="M 2.5,-6.921875 1.15625,-5.5625 1.328125,-5.390625 2.5,-6.40625 3.640625,-5.390625 3.8125,-5.5625 Z m 0,0"
             id="id-d70e78a3-d376-4568-bf05-3c6ebaa73166" />
        </g>
        <g
           id="id-afc0450c-7370-4ada-86a4-c544bd4d8f05">
          <path
             d="M 1.09375,-3.421875 V -0.75 c 0,0.4375 -0.109375,0.4375 -0.78125,0.4375 V 0 c 0.359375,-0.015625 0.859375,-0.03125 1.140625,-0.03125 0.25,0 0.765625,0.015625 1.109375,0.03125 v -0.3125 c -0.671875,0 -0.78125,0 -0.78125,-0.4375 V -2.59375 C 1.78125,-3.625 2.5,-4.1875 3.125,-4.1875 c 0.640625,0 0.75,0.53125 0.75,1.109375 V -0.75 c 0,0.4375 -0.109375,0.4375 -0.78125,0.4375 V 0 c 0.34375,-0.015625 0.859375,-0.03125 1.125,-0.03125 0.25,0 0.78125,0.015625 1.109375,0.03125 v -0.3125 c -0.515625,0 -0.765625,0 -0.765625,-0.296875 v -1.90625 c 0,-0.859375 0,-1.15625 -0.3125,-1.515625 -0.140625,-0.171875 -0.46875,-0.375 -1.046875,-0.375 C 2.46875,-4.40625 2,-3.984375 1.71875,-3.359375 V -4.40625 L 0.3125,-4.296875 v 0.3125 c 0.703125,0 0.78125,0.0625 0.78125,0.5625 z m 0,0"
             id="id-d1c8c2df-decc-4341-ad67-0124b9468c1c" />
        </g>
        <g
           id="id-31fb8340-2403-4aa9-afba-c100bf00d1e3">
          <path
             d="m 1.171875,-2.171875 c 0,-1.625 0.8125,-2.046875 1.34375,-2.046875 0.09375,0 0.71875,0.015625 1.0625,0.375 -0.40625,0.03125 -0.46875,0.328125 -0.46875,0.453125 0,0.265625 0.1875,0.453125 0.453125,0.453125 0.265625,0 0.46875,-0.15625 0.46875,-0.46875 0,-0.671875 -0.765625,-1.0625 -1.53125,-1.0625 -1.25,0 -2.15625,1.078125 -2.15625,2.3125 0,1.28125 0.984375,2.265625 2.140625,2.265625 1.328125,0 1.65625,-1.203125 1.65625,-1.296875 0,-0.09375 -0.109375,-0.09375 -0.140625,-0.09375 -0.078125,0 -0.109375,0.03125 -0.125,0.09375 -0.28125,0.921875 -0.9375,1.046875 -1.296875,1.046875 -0.53125,0 -1.40625,-0.421875 -1.40625,-2.03125 z m 0,0"
             id="id-39345e7b-3d57-49dc-9ef3-2e02cc79fefa" />
        </g>
        <g
           id="id-01130003-7e5a-453f-a2ea-1f46b9b1ec9d">
          <path
             d="M 1.765625,-4.40625 0.375,-4.296875 v 0.3125 c 0.640625,0 0.734375,0.0625 0.734375,0.546875 V -0.75 c 0,0.4375 -0.109375,0.4375 -0.78125,0.4375 V 0 C 0.640625,-0.015625 1.1875,-0.03125 1.421875,-0.03125 1.78125,-0.03125 2.125,-0.015625 2.46875,0 v -0.3125 c -0.671875,0 -0.703125,-0.046875 -0.703125,-0.4375 z m 0.03125,-1.734375 c 0,-0.3125 -0.234375,-0.53125 -0.515625,-0.53125 -0.3125,0 -0.53125,0.265625 -0.53125,0.53125 0,0.265625 0.21875,0.53125 0.53125,0.53125 0.28125,0 0.515625,-0.21875 0.515625,-0.53125 z m 0,0"
             id="id-d2a57e37-ff83-4d40-9d23-dc8075e7332a" />
        </g>
        <g
           id="id-485bcfa7-99f3-4f59-9e11-a89815c9e77b">
          <path
             d="m 3.3125,-0.75 c 0.046875,0.390625 0.3125,0.8125 0.78125,0.8125 0.21875,0 0.828125,-0.140625 0.828125,-0.953125 v -0.5625 h -0.25 v 0.5625 c 0,0.578125 -0.25,0.640625 -0.359375,0.640625 -0.328125,0 -0.375,-0.453125 -0.375,-0.5 v -1.984375 c 0,-0.421875 0,-0.8125 -0.359375,-1.1875 C 3.1875,-4.3125 2.6875,-4.46875 2.21875,-4.46875 c -0.828125,0 -1.515625,0.46875 -1.515625,1.125 0,0.296875 0.203125,0.46875 0.46875,0.46875 0.28125,0 0.453125,-0.203125 0.453125,-0.453125 0,-0.125 -0.046875,-0.453125 -0.515625,-0.453125 C 1.390625,-4.140625 1.875,-4.25 2.1875,-4.25 c 0.5,0 1.0625,0.390625 1.0625,1.28125 v 0.359375 c -0.515625,0.03125 -1.203125,0.0625 -1.828125,0.359375 -0.75,0.34375 -1,0.859375 -1,1.296875 0,0.8125 0.96875,1.0625 1.59375,1.0625 0.65625,0 1.109375,-0.40625 1.296875,-0.859375 z M 3.25,-2.390625 v 1 c 0,0.9375 -0.71875,1.28125 -1.171875,1.28125 -0.484375,0 -0.890625,-0.34375 -0.890625,-0.84375 0,-0.546875 0.421875,-1.375 2.0625,-1.4375 z m 0,0"
             id="id-35a01657-5279-45a8-92a0-6146e8118352" />
        </g>
        <g
           id="id-23a0b7e7-bbb6-462b-bee2-99b36f23bc38">
          <path
             d="m 6.84375,-3.265625 c 0.15625,0 0.34375,0 0.34375,-0.1875 C 7.1875,-3.65625 7,-3.65625 6.859375,-3.65625 h -5.96875 c -0.140625,0 -0.328125,0 -0.328125,0.203125 0,0.1875 0.1875,0.1875 0.328125,0.1875 z m 0.015625,1.9375 c 0.140625,0 0.328125,0 0.328125,-0.203125 0,-0.1875 -0.1875,-0.1875 -0.34375,-0.1875 H 0.890625 c -0.140625,0 -0.328125,0 -0.328125,0.1875 0,0.203125 0.1875,0.203125 0.328125,0.203125 z m 0,0"
             id="id-8ebe630e-7669-45e4-a46f-d8510ce9b965" />
        </g>
        <g
           id="id-a242a796-f10b-4693-aa5d-449af25febb6">
          <path
             d="m 2.9375,-1.640625 v 0.859375 c 0,0.359375 -0.03125,0.46875 -0.765625,0.46875 H 1.96875 V 0 C 2.375,-0.03125 2.890625,-0.03125 3.3125,-0.03125 c 0.421875,0 0.9375,0 1.359375,0.03125 v -0.3125 h -0.21875 c -0.734375,0 -0.75,-0.109375 -0.75,-0.46875 V -1.640625 H 4.6875 v -0.3125 H 3.703125 v -4.53125 c 0,-0.203125 0,-0.265625 -0.171875,-0.265625 -0.078125,0 -0.109375,0 -0.1875,0.125 l -3.0625,4.671875 v 0.3125 z m 0.046875,-0.3125 H 0.5625 l 2.421875,-3.71875 z m 0,0"
             id="id-679113d5-6a2e-41a4-aa4f-b98253e3fc4d" />
        </g>
        <g
           id="id-3d8d625a-6494-4e94-ab09-86cb53bf01b4">
          <path
             d="m 4.578125,-3.1875 c 0,-0.796875 -0.046875,-1.59375 -0.390625,-2.328125 -0.453125,-0.96875 -1.28125,-1.125 -1.6875,-1.125 -0.609375,0 -1.328125,0.265625 -1.75,1.1875 -0.3125,0.6875 -0.359375,1.46875 -0.359375,2.265625 0,0.75 0.03125,1.640625 0.453125,2.40625 0.421875,0.796875 1.15625,1 1.640625,1 0.53125,0 1.296875,-0.203125 1.734375,-1.15625 0.3125,-0.6875 0.359375,-1.46875 0.359375,-2.25 z M 2.484375,0 C 2.09375,0 1.5,-0.25 1.328125,-1.203125 1.21875,-1.796875 1.21875,-2.71875 1.21875,-3.3125 c 0,-0.640625 0,-1.296875 0.078125,-1.828125 0.1875,-1.1875 0.9375,-1.28125 1.1875,-1.28125 0.328125,0 0.984375,0.1875 1.171875,1.171875 0.109375,0.5625 0.109375,1.3125 0.109375,1.9375 0,0.75 0,1.421875 -0.109375,2.0625 C 3.5,-0.296875 2.9375,0 2.484375,0 Z m 0,0"
             id="id-0b75063d-751c-4dd7-b46f-917c00f3b6de" />
        </g>
        <g
           id="id-7ed9b309-71b9-445d-b106-1f3ac9295144">
          <path
             d="m 1.09375,-0.75 c 0,0.4375 -0.109375,0.4375 -0.78125,0.4375 V 0 c 0.359375,-0.015625 0.859375,-0.03125 1.140625,-0.03125 0.25,0 0.765625,0.015625 1.109375,0.03125 v -0.3125 c -0.671875,0 -0.78125,0 -0.78125,-0.4375 V -2.59375 C 1.78125,-3.625 2.5,-4.1875 3.125,-4.1875 c 0.640625,0 0.75,0.53125 0.75,1.109375 V -0.75 c 0,0.4375 -0.109375,0.4375 -0.78125,0.4375 V 0 c 0.34375,-0.015625 0.859375,-0.03125 1.125,-0.03125 0.25,0 0.78125,0.015625 1.109375,0.03125 v -0.3125 c -0.515625,0 -0.765625,0 -0.765625,-0.296875 v -1.90625 c 0,-0.859375 0,-1.15625 -0.3125,-1.515625 -0.140625,-0.171875 -0.46875,-0.375 -1.046875,-0.375 -0.84375,0 -1.28125,0.59375 -1.453125,0.984375 v -3.5 L 0.3125,-6.8125 V -6.5 c 0.703125,0 0.78125,0.0625 0.78125,0.5625 z m 0,0"
             id="id-8388af5b-d6d4-4368-ac98-fc7c3024006e" />
        </g>
        <g
           id="id-ccdae636-86a2-4161-8eff-25ddf88edc39">
          <path
             d="m 3.890625,-4 c 0.09375,-0.109375 0.09375,-0.125 0.09375,-0.171875 0,-0.125 -0.09375,-0.125 -0.265625,-0.125 H 0.53125 L 0.421875,-2.6875 h 0.25 c 0.0625,-1.015625 0.25,-1.390625 1.34375,-1.390625 H 3.15625 L 0.375,-0.3125 C 0.28125,-0.203125 0.28125,-0.1875 0.28125,-0.140625 0.28125,0 0.34375,0 0.53125,0 H 3.828125 L 4,-1.859375 H 3.75 C 3.65625,-0.6875 3.453125,-0.25 2.296875,-0.25 h -1.1875 z m 0,0"
             id="id-085c9d21-318b-49f0-90b0-07f5e6ee06b4" />
        </g>
        <g
           id="id-15b593d7-3e34-4597-9c0d-0e9e7932ebb7">
          <path
             d="m 2.265625,-3.15625 h 1.6875 c 1.1875,0 2.265625,-0.796875 2.265625,-1.796875 C 6.21875,-5.9375 5.234375,-6.8125 3.875,-6.8125 H 0.34375 V -6.5 h 0.25 c 0.765625,0 0.78125,0.109375 0.78125,0.46875 v 5.25 c 0,0.359375 -0.015625,0.46875 -0.78125,0.46875 h -0.25 V 0 c 0.359375,-0.03125 1.09375,-0.03125 1.46875,-0.03125 0.375,0 1.125,0 1.484375,0.03125 v -0.3125 h -0.25 c -0.765625,0 -0.78125,-0.109375 -0.78125,-0.46875 z m -0.03125,-0.25 v -2.6875 C 2.234375,-6.4375 2.25,-6.5 2.71875,-6.5 h 0.890625 c 1.578125,0 1.578125,1.0625 1.578125,1.546875 0,0.46875 0,1.546875 -1.578125,1.546875 z m 0,0"
             id="id-c1f5b848-2214-4dde-87c3-4c095f2a1a22" />
        </g>
        <g
           id="id-c0174cea-0fad-42f5-97ae-eee2524dad72">
          <path
             d="M 3.734375,-6.296875 C 3.828125,-6.375 3.90625,-6.484375 3.90625,-6.59375 c 0,-0.1875 -0.171875,-0.359375 -0.359375,-0.359375 -0.140625,0 -0.25,0.109375 -0.296875,0.171875 l -1.203125,1.515625 0.171875,0.1875 z m 0,0"
             id="id-8258da2b-ebcf-4210-a8ab-91842087b2ad" />
        </g>
        <g
           id="id-7ca30509-1ac8-4f28-bd8d-5b35f780e15c">
          <path
             d="M 1.765625,-4.40625 0.375,-4.296875 v 0.3125 c 0.640625,0 0.734375,0.0625 0.734375,0.546875 V -0.75 c 0,0.4375 -0.109375,0.4375 -0.78125,0.4375 V 0 C 0.640625,-0.015625 1.1875,-0.03125 1.421875,-0.03125 1.78125,-0.03125 2.125,-0.015625 2.46875,0 v -0.3125 c -0.671875,0 -0.703125,-0.046875 -0.703125,-0.4375 z m 0,0"
             id="id-b376bca4-872e-4682-a7b6-a9131c6a124e" />
        </g>
        <g
           id="id-f92f403c-a143-4ee2-a6d3-d8ad523937de">
          <path
             d="M 4.6875,-2.140625 C 4.6875,-3.40625 3.703125,-4.46875 2.5,-4.46875 c -1.25,0 -2.21875,1.09375 -2.21875,2.328125 0,1.296875 1.03125,2.25 2.203125,2.25 1.203125,0 2.203125,-0.984375 2.203125,-2.25 z m -2.1875,2 c -0.4375,0 -0.875,-0.203125 -1.140625,-0.671875 -0.25,-0.4375 -0.25,-1.046875 -0.25,-1.40625 0,-0.390625 0,-0.921875 0.234375,-1.359375 C 1.609375,-4.03125 2.078125,-4.25 2.484375,-4.25 c 0.4375,0 0.859375,0.21875 1.125,0.65625 0.265625,0.421875 0.265625,1 0.265625,1.375 0,0.359375 0,0.90625 -0.21875,1.34375 C 3.421875,-0.421875 2.984375,-0.140625 2.5,-0.140625 Z m 0,0"
             id="id-573f9100-be0a-455a-9d90-5ff48c56723d" />
        </g>
        <g
           id="id-06e234c5-a541-4a02-b434-3fcb524e544a">
          <path
             d="m 3.78125,-0.546875 v 0.65625 L 5.25,0 v -0.3125 c -0.6875,0 -0.78125,-0.0625 -0.78125,-0.5625 V -6.921875 L 3.046875,-6.8125 V -6.5 c 0.6875,0 0.765625,0.0625 0.765625,0.5625 v 2.15625 c -0.28125,-0.359375 -0.71875,-0.625 -1.25,-0.625 -1.171875,0 -2.21875,0.984375 -2.21875,2.265625 0,1.265625 0.96875,2.25 2.109375,2.25 0.640625,0 1.078125,-0.34375 1.328125,-0.65625 z m 0,-2.671875 v 2.046875 c 0,0.171875 0,0.1875 -0.109375,0.359375 C 3.375,-0.328125 2.9375,-0.109375 2.5,-0.109375 2.046875,-0.109375 1.6875,-0.375 1.453125,-0.75 1.203125,-1.15625 1.171875,-1.71875 1.171875,-2.140625 1.171875,-2.5 1.1875,-3.09375 1.46875,-3.546875 1.6875,-3.859375 2.0625,-4.1875 2.609375,-4.1875 c 0.34375,0 0.765625,0.15625 1.0625,0.59375 0.109375,0.171875 0.109375,0.1875 0.109375,0.375 z m 0,0"
             id="id-cef1ac95-de57-4cfa-ab5d-d8eb1cd7483a" />
        </g>
        <g
           id="id-66f46755-016e-41b0-910c-d029747ff40a">
          <path
             d="m 1.265625,-0.765625 1.0625,-1.03125 c 1.546875,-1.375 2.140625,-1.90625 2.140625,-2.90625 0,-1.140625 -0.890625,-1.9375 -2.109375,-1.9375 -1.125,0 -1.859375,0.921875 -1.859375,1.8125 0,0.546875 0.5,0.546875 0.53125,0.546875 0.171875,0 0.515625,-0.109375 0.515625,-0.53125 0,-0.25 -0.1875,-0.515625 -0.53125,-0.515625 -0.078125,0 -0.09375,0 -0.125,0.015625 0.21875,-0.65625 0.765625,-1.015625 1.34375,-1.015625 0.90625,0 1.328125,0.8125 1.328125,1.625 C 3.5625,-3.90625 3.078125,-3.125 2.515625,-2.5 l -1.90625,2.125 C 0.5,-0.265625 0.5,-0.234375 0.5,0 H 4.203125 L 4.46875,-1.734375 H 4.234375 C 4.171875,-1.4375 4.109375,-1 4,-0.84375 3.9375,-0.765625 3.28125,-0.765625 3.0625,-0.765625 Z m 0,0"
             id="id-a6da9d1c-633c-4688-9a8d-44fc8dffc9d6" />
        </g>
        <g
           id="id-40d63e6d-e1af-4452-84e8-d3268333e3ea">
          <path
             d="m 2.03125,-0.015625 c 0,-0.625 -0.25,-1.046875 -0.640625,-1.046875 -0.359375,0 -0.53125,0.28125 -0.53125,0.53125 0,0.265625 0.171875,0.53125 0.53125,0.53125 0.15625,0 0.28125,-0.0625 0.375,-0.140625 L 1.78125,-0.15625 c 0.015625,0 0.015625,0 0.015625,0.140625 0,0.640625 -0.265625,1.25 -0.703125,1.71875 -0.0625,0.0625 -0.078125,0.078125 -0.078125,0.109375 0,0.078125 0.046875,0.109375 0.09375,0.109375 0.125,0 0.921875,-0.78125 0.921875,-1.9375 z m 0,0"
             id="id-7ca03f61-59ed-4653-9463-946d9a30e334" />
        </g>
        <g
           id="id-5e039cc9-6675-4041-b93b-8b59b14b9911">
          <path
             d="m 4.75,-6.078125 c 0.078125,-0.109375 0.078125,-0.125 0.078125,-0.34375 H 2.40625 c -1.203125,0 -1.234375,-0.125 -1.265625,-0.3125 h -0.25 L 0.5625,-4.6875 h 0.25 c 0.03125,-0.15625 0.109375,-0.78125 0.25,-0.90625 0.0625,-0.0625 0.84375,-0.0625 0.96875,-0.0625 h 2.0625 C 3.984375,-5.5 3.203125,-4.40625 2.984375,-4.078125 2.078125,-2.734375 1.75,-1.34375 1.75,-0.328125 c 0,0.09375 0,0.546875 0.46875,0.546875 0.453125,0 0.453125,-0.453125 0.453125,-0.546875 V -0.84375 c 0,-0.546875 0.03125,-1.09375 0.109375,-1.625 0.046875,-0.234375 0.171875,-1.09375 0.625,-1.703125 z m 0,0"
             id="id-99581fb8-cb6b-4b30-a123-0fadf9712fb2" />
        </g>
        <g
           id="id-5851ee76-bc2a-4e89-b539-9672fdb51847">
          <path
             d="M 1.09375,-3.421875 V -0.75 c 0,0.4375 -0.109375,0.4375 -0.78125,0.4375 V 0 c 0.359375,-0.015625 0.859375,-0.03125 1.140625,-0.03125 0.25,0 0.765625,0.015625 1.109375,0.03125 v -0.3125 c -0.671875,0 -0.78125,0 -0.78125,-0.4375 V -2.59375 C 1.78125,-3.625 2.5,-4.1875 3.125,-4.1875 c 0.640625,0 0.75,0.53125 0.75,1.109375 V -0.75 c 0,0.4375 -0.109375,0.4375 -0.78125,0.4375 V 0 c 0.34375,-0.015625 0.859375,-0.03125 1.125,-0.03125 0.25,0 0.78125,0.015625 1.109375,0.03125 v -0.3125 c -0.65625,0 -0.765625,0 -0.765625,-0.4375 v -1.84375 c 0,-1.03125 0.703125,-1.59375 1.34375,-1.59375 0.625,0 0.734375,0.53125 0.734375,1.109375 V -0.75 c 0,0.4375 -0.109375,0.4375 -0.78125,0.4375 V 0 c 0.34375,-0.015625 0.859375,-0.03125 1.125,-0.03125 0.265625,0 0.78125,0.015625 1.125,0.03125 v -0.3125 c -0.515625,0 -0.765625,0 -0.78125,-0.296875 v -1.90625 c 0,-0.859375 0,-1.15625 -0.3125,-1.515625 -0.140625,-0.171875 -0.46875,-0.375 -1.046875,-0.375 -0.828125,0 -1.28125,0.59375 -1.4375,0.984375 C 4.390625,-4.296875 3.65625,-4.40625 3.203125,-4.40625 2.46875,-4.40625 2,-3.984375 1.71875,-3.359375 V -4.40625 L 0.3125,-4.296875 v 0.3125 c 0.703125,0 0.78125,0.0625 0.78125,0.5625 z m 0,0"
             id="id-782ba35b-c2cf-4ec4-940a-098dc46c244d" />
        </g>
        <g
           id="id-c3bd8112-1129-4d8e-b598-11063e8b0e8f">
          <path
             d="m 2.078125,-1.9375 c 0.21875,0.046875 1.03125,0.203125 1.03125,0.921875 0,0.5 -0.34375,0.90625 -1.125,0.90625 -0.84375,0 -1.203125,-0.5625 -1.390625,-1.421875 C 0.5625,-1.65625 0.5625,-1.6875 0.453125,-1.6875 c -0.125,0 -0.125,0.0625 -0.125,0.234375 V -0.125 c 0,0.171875 0,0.234375 0.109375,0.234375 0.046875,0 0.0625,-0.015625 0.25,-0.203125 0.015625,-0.015625 0.015625,-0.03125 0.203125,-0.21875 0.4375,0.40625 0.890625,0.421875 1.09375,0.421875 1.140625,0 1.609375,-0.671875 1.609375,-1.390625 0,-0.515625 -0.296875,-0.828125 -0.421875,-0.9375 C 2.84375,-2.546875 2.453125,-2.625 2.03125,-2.703125 1.46875,-2.8125 0.8125,-2.9375 0.8125,-3.515625 c 0,-0.359375 0.25,-0.765625 1.109375,-0.765625 1.09375,0 1.15625,0.90625 1.171875,1.203125 0,0.09375 0.09375,0.09375 0.109375,0.09375 0.140625,0 0.140625,-0.046875 0.140625,-0.234375 v -1.015625 c 0,-0.15625 0,-0.234375 -0.109375,-0.234375 -0.046875,0 -0.078125,0 -0.203125,0.125 -0.03125,0.03125 -0.125,0.125 -0.171875,0.15625 -0.375,-0.28125 -0.78125,-0.28125 -0.9375,-0.28125 -1.21875,0 -1.59375,0.671875 -1.59375,1.234375 0,0.34375 0.15625,0.625 0.421875,0.84375 0.328125,0.25 0.609375,0.3125 1.328125,0.453125 z m 0,0"
             id="id-a30cfa3b-c7b0-49b9-b3c2-641a2610952a" />
        </g>
      </g>
    </defs>
    <g
       fill="#000000"
       fill-opacity="1"
       id="id-3daf0146-8de6-4d12-b153-a2d03cb102e9"
       transform="translate(-149.04,-127.843)">
      <g
         transform="translate(148.712,134.765)"
         id="g9535">
        <path
           d="m 5.796875,-6.78125 h -5.46875 v 0.3125 H 0.5625 c 0.765625,0 0.796875,0.109375 0.796875,0.46875 v 5.21875 c 0,0.359375 -0.03125,0.46875 -0.796875,0.46875 H 0.328125 V 0 c 0.34375,-0.03125 1.125,-0.03125 1.515625,-0.03125 0.40625,0 1.3125,0 1.671875,0.03125 V -0.3125 H 3.1875 C 2.25,-0.3125 2.25,-0.4375 2.25,-0.78125 v -2.453125 h 0.84375 c 0.96875,0 1.0625,0.3125 1.0625,1.15625 h 0.25 V -4.71875 h -0.25 c 0,0.84375 -0.09375,1.171875 -1.0625,1.171875 H 2.25 v -2.53125 c 0,-0.328125 0.015625,-0.390625 0.484375,-0.390625 h 1.1875 c 1.5,0 1.75,0.5625 1.90625,1.9375 h 0.25 z m 0,0"
           id="id-333c64aa-d613-4b80-9df4-ab0e82a0acc2" />
      </g>
    </g>
    <g
       fill="#000000"
       fill-opacity="1"
       id="id-619a5410-932d-4f26-94b8-7b937b287b76"
       transform="translate(-149.04,-127.843)">
      <g
         transform="translate(154.389,134.765)"
         id="g9539">
        <path
           d="M 1.671875,-3.3125 V -4.40625 L 0.28125,-4.296875 v 0.3125 c 0.703125,0 0.78125,0.0625 0.78125,0.5625 V -0.75 c 0,0.4375 -0.109375,0.4375 -0.78125,0.4375 V 0 c 0.390625,-0.015625 0.859375,-0.03125 1.140625,-0.03125 0.390625,0 0.859375,0 1.265625,0.03125 V -0.3125 H 2.46875 c -0.734375,0 -0.75,-0.109375 -0.75,-0.46875 V -2.3125 c 0,-0.984375 0.421875,-1.875 1.171875,-1.875 0.0625,0 0.09375,0 0.109375,0.015625 -0.03125,0 -0.234375,0.125 -0.234375,0.390625 0,0.265625 0.21875,0.421875 0.4375,0.421875 0.171875,0 0.421875,-0.125 0.421875,-0.4375 0,-0.3125 -0.3125,-0.609375 -0.734375,-0.609375 -0.734375,0 -1.09375,0.671875 -1.21875,1.09375 z m 0,0"
           id="id-50ff1eca-f5c1-40bf-a897-326db9e4ff15" />
      </g>
      <g
         transform="translate(158.291,134.765)"
         id="g9542">
        <path
           d="M 1.109375,-2.515625 C 1.171875,-4 2.015625,-4.25 2.359375,-4.25 c 1.015625,0 1.125,1.34375 1.125,1.734375 z m 0,0.21875 h 2.78125 c 0.21875,0 0.25,0 0.25,-0.21875 0,-0.984375 -0.546875,-1.953125 -1.78125,-1.953125 -1.15625,0 -2.078125,1.03125 -2.078125,2.28125 0,1.328125 1.046875,2.296875 2.1875,2.296875 C 3.6875,0.109375 4.140625,-1 4.140625,-1.1875 4.140625,-1.28125 4.0625,-1.3125 4,-1.3125 c -0.078125,0 -0.109375,0.0625 -0.125,0.140625 -0.34375,1.03125 -1.25,1.03125 -1.34375,1.03125 -0.5,0 -0.890625,-0.296875 -1.125,-0.671875 -0.296875,-0.46875 -0.296875,-1.125 -0.296875,-1.484375 z m 0,0"
           id="id-4165f68d-2c5a-4e55-8a61-3e22c4324e94" />
      </g>
      <g
         transform="translate(162.718,134.765)"
         id="g9545">
        <path
           d="m 3.78125,-0.609375 v 1.78125 C 3.78125,1.625 3.671875,1.625 3.015625,1.625 V 1.9375 C 3.34375,1.921875 3.875,1.90625 4.125,1.90625 c 0.265625,0 0.78125,0.015625 1.125,0.03125 V 1.625 c -0.671875,0 -0.78125,0 -0.78125,-0.453125 V -4.40625 H 4.25 L 3.875,-3.5 C 3.75,-3.78125 3.34375,-4.40625 2.546875,-4.40625 c -1.15625,0 -2.203125,0.96875 -2.203125,2.265625 0,1.25 0.96875,2.25 2.125,2.25 0.6875,0 1.09375,-0.421875 1.3125,-0.71875 z m 0.03125,-2.15625 v 1.40625 C 3.8125,-1.03125 3.640625,-0.75 3.421875,-0.515625 3.296875,-0.375 2.96875,-0.109375 2.5,-0.109375 1.78125,-0.109375 1.171875,-1 1.171875,-2.140625 c 0,-1.1875 0.6875,-2.015625 1.4375,-2.015625 0.796875,0 1.203125,0.859375 1.203125,1.390625 z m 0,0"
           id="id-8c431ef3-dabf-45fe-9bc1-ba48b0d64535" />
      </g>
      <g
         transform="translate(167.977,134.765)"
         id="g9548">
        <path
           d="M 3.890625,-0.78125 V 0.109375 L 5.328125,0 V -0.3125 C 4.640625,-0.3125 4.5625,-0.375 4.5625,-0.875 v -3.53125 l -1.46875,0.109375 v 0.3125 c 0.6875,0 0.78125,0.0625 0.78125,0.5625 v 1.765625 c 0,0.875 -0.484375,1.546875 -1.21875,1.546875 -0.828125,0 -0.875,-0.46875 -0.875,-0.984375 v -3.3125 L 0.3125,-4.296875 v 0.3125 c 0.78125,0 0.78125,0.03125 0.78125,0.90625 v 1.5 c 0,0.78125 0,1.6875 1.515625,1.6875 0.5625,0 1,-0.28125 1.28125,-0.890625 z m 0,0"
           id="id-b1471cd2-5597-4e31-b2c1-916bb141bcf9" />
      </g>
    </g>
    <g
       fill="#000000"
       fill-opacity="1"
       id="id-9143db78-886a-4d6a-aab7-1b42365c8dad"
       transform="translate(-149.04,-127.843)">
      <g
         transform="translate(173.233,134.765)"
         id="g9552">
        <path
           d="M 2.5,-6.921875 1.15625,-5.5625 1.328125,-5.390625 2.5,-6.40625 3.640625,-5.390625 3.8125,-5.5625 Z m 0,0"
           id="id-2c82a391-a696-425a-a40b-3d96826ec331" />
      </g>
    </g>
    <g
       fill="#000000"
       fill-opacity="1"
       id="id-179419a9-e5b5-4ccc-8036-19f11cd4f683"
       transform="translate(-149.04,-127.843)">
      <g
         transform="translate(173.512,134.765)"
         id="g9556">
        <path
           d="M 1.109375,-2.515625 C 1.171875,-4 2.015625,-4.25 2.359375,-4.25 c 1.015625,0 1.125,1.34375 1.125,1.734375 z m 0,0.21875 h 2.78125 c 0.21875,0 0.25,0 0.25,-0.21875 0,-0.984375 -0.546875,-1.953125 -1.78125,-1.953125 -1.15625,0 -2.078125,1.03125 -2.078125,2.28125 0,1.328125 1.046875,2.296875 2.1875,2.296875 C 3.6875,0.109375 4.140625,-1 4.140625,-1.1875 4.140625,-1.28125 4.0625,-1.3125 4,-1.3125 c -0.078125,0 -0.109375,0.0625 -0.125,0.140625 -0.34375,1.03125 -1.25,1.03125 -1.34375,1.03125 -0.5,0 -0.890625,-0.296875 -1.125,-0.671875 -0.296875,-0.46875 -0.296875,-1.125 -0.296875,-1.484375 z m 0,0"
           id="id-d7fc60f4-674f-4011-9736-92774c8acb7a" />
      </g>
      <g
         transform="translate(177.939,134.765)"
         id="g9559">
        <path
           d="M 1.09375,-3.421875 V -0.75 c 0,0.4375 -0.109375,0.4375 -0.78125,0.4375 V 0 c 0.359375,-0.015625 0.859375,-0.03125 1.140625,-0.03125 0.25,0 0.765625,0.015625 1.109375,0.03125 v -0.3125 c -0.671875,0 -0.78125,0 -0.78125,-0.4375 V -2.59375 C 1.78125,-3.625 2.5,-4.1875 3.125,-4.1875 c 0.640625,0 0.75,0.53125 0.75,1.109375 V -0.75 c 0,0.4375 -0.109375,0.4375 -0.78125,0.4375 V 0 c 0.34375,-0.015625 0.859375,-0.03125 1.125,-0.03125 0.25,0 0.78125,0.015625 1.109375,0.03125 v -0.3125 c -0.515625,0 -0.765625,0 -0.765625,-0.296875 v -1.90625 c 0,-0.859375 0,-1.15625 -0.3125,-1.515625 -0.140625,-0.171875 -0.46875,-0.375 -1.046875,-0.375 C 2.46875,-4.40625 2,-3.984375 1.71875,-3.359375 V -4.40625 L 0.3125,-4.296875 v 0.3125 c 0.703125,0 0.78125,0.0625 0.78125,0.5625 z m 0,0"
           id="id-f28b7818-153e-4d2f-99fa-664f82c7168f" />
      </g>
      <g
         transform="translate(183.475,134.765)"
         id="g9562">
        <path
           d="m 1.171875,-2.171875 c 0,-1.625 0.8125,-2.046875 1.34375,-2.046875 0.09375,0 0.71875,0.015625 1.0625,0.375 -0.40625,0.03125 -0.46875,0.328125 -0.46875,0.453125 0,0.265625 0.1875,0.453125 0.453125,0.453125 0.265625,0 0.46875,-0.15625 0.46875,-0.46875 0,-0.671875 -0.765625,-1.0625 -1.53125,-1.0625 -1.25,0 -2.15625,1.078125 -2.15625,2.3125 0,1.28125 0.984375,2.265625 2.140625,2.265625 1.328125,0 1.65625,-1.203125 1.65625,-1.296875 0,-0.09375 -0.109375,-0.09375 -0.140625,-0.09375 -0.078125,0 -0.109375,0.03125 -0.125,0.09375 -0.28125,0.921875 -0.9375,1.046875 -1.296875,1.046875 -0.53125,0 -1.40625,-0.421875 -1.40625,-2.03125 z m 0,0"
           id="id-787dc270-ccf6-4d46-a073-cd8d264a6b03" />
      </g>
      <g
         transform="translate(187.902,134.765)"
         id="g9565">
        <path
           d="M 1.765625,-4.40625 0.375,-4.296875 v 0.3125 c 0.640625,0 0.734375,0.0625 0.734375,0.546875 V -0.75 c 0,0.4375 -0.109375,0.4375 -0.78125,0.4375 V 0 C 0.640625,-0.015625 1.1875,-0.03125 1.421875,-0.03125 1.78125,-0.03125 2.125,-0.015625 2.46875,0 v -0.3125 c -0.671875,0 -0.703125,-0.046875 -0.703125,-0.4375 z m 0.03125,-1.734375 c 0,-0.3125 -0.234375,-0.53125 -0.515625,-0.53125 -0.3125,0 -0.53125,0.265625 -0.53125,0.53125 0,0.265625 0.21875,0.53125 0.53125,0.53125 0.28125,0 0.515625,-0.21875 0.515625,-0.53125 z m 0,0"
           id="id-dfb4e931-ee12-4917-97d3-bf287b9c7773" />
      </g>
      <g
         transform="translate(190.669,134.765)"
         id="g9568">
        <path
           d="m 3.3125,-0.75 c 0.046875,0.390625 0.3125,0.8125 0.78125,0.8125 0.21875,0 0.828125,-0.140625 0.828125,-0.953125 v -0.5625 h -0.25 v 0.5625 c 0,0.578125 -0.25,0.640625 -0.359375,0.640625 -0.328125,0 -0.375,-0.453125 -0.375,-0.5 v -1.984375 c 0,-0.421875 0,-0.8125 -0.359375,-1.1875 C 3.1875,-4.3125 2.6875,-4.46875 2.21875,-4.46875 c -0.828125,0 -1.515625,0.46875 -1.515625,1.125 0,0.296875 0.203125,0.46875 0.46875,0.46875 0.28125,0 0.453125,-0.203125 0.453125,-0.453125 0,-0.125 -0.046875,-0.453125 -0.515625,-0.453125 C 1.390625,-4.140625 1.875,-4.25 2.1875,-4.25 c 0.5,0 1.0625,0.390625 1.0625,1.28125 v 0.359375 c -0.515625,0.03125 -1.203125,0.0625 -1.828125,0.359375 -0.75,0.34375 -1,0.859375 -1,1.296875 0,0.8125 0.96875,1.0625 1.59375,1.0625 0.65625,0 1.109375,-0.40625 1.296875,-0.859375 z M 3.25,-2.390625 v 1 c 0,0.9375 -0.71875,1.28125 -1.171875,1.28125 -0.484375,0 -0.890625,-0.34375 -0.890625,-0.84375 0,-0.546875 0.421875,-1.375 2.0625,-1.4375 z m 0,0"
           id="id-6af6d46f-9eee-4035-99e4-06f8216c0a9e" />
      </g>
    </g>
    <g
       fill="#000000"
       fill-opacity="1"
       id="id-05161eb8-d4c0-4958-afb6-e6dad9119c4b"
       transform="translate(-149.04,-127.843)">
      <g
         transform="translate(198.968,134.765)"
         id="g9572">
        <path
           d="m 6.84375,-3.265625 c 0.15625,0 0.34375,0 0.34375,-0.1875 C 7.1875,-3.65625 7,-3.65625 6.859375,-3.65625 h -5.96875 c -0.140625,0 -0.328125,0 -0.328125,0.203125 0,0.1875 0.1875,0.1875 0.328125,0.1875 z m 0.015625,1.9375 c 0.140625,0 0.328125,0 0.328125,-0.203125 0,-0.1875 -0.1875,-0.1875 -0.34375,-0.1875 H 0.890625 c -0.140625,0 -0.328125,0 -0.328125,0.1875 0,0.203125 0.1875,0.203125 0.328125,0.203125 z m 0,0"
           id="id-d1c01388-9858-428a-9c11-a31ab248a1b7" />
      </g>
    </g>
    <g
       fill="#000000"
       fill-opacity="1"
       id="id-4c685011-c5e8-4f61-8f95-01f0c684bb3a"
       transform="translate(-149.04,-127.843)">
      <g
         transform="translate(210.035,134.765)"
         id="g9576">
        <path
           d="m 2.9375,-1.640625 v 0.859375 c 0,0.359375 -0.03125,0.46875 -0.765625,0.46875 H 1.96875 V 0 C 2.375,-0.03125 2.890625,-0.03125 3.3125,-0.03125 c 0.421875,0 0.9375,0 1.359375,0.03125 v -0.3125 h -0.21875 c -0.734375,0 -0.75,-0.109375 -0.75,-0.46875 V -1.640625 H 4.6875 v -0.3125 H 3.703125 v -4.53125 c 0,-0.203125 0,-0.265625 -0.171875,-0.265625 -0.078125,0 -0.109375,0 -0.1875,0.125 l -3.0625,4.671875 v 0.3125 z m 0.046875,-0.3125 H 0.5625 l 2.421875,-3.71875 z m 0,0"
           id="id-d17d29e8-e164-4b5e-8746-bb6f77e68ccf" />
      </g>
      <g
         transform="translate(215.016,134.765)"
         id="g9579">
        <path
           d="m 2.9375,-1.640625 v 0.859375 c 0,0.359375 -0.03125,0.46875 -0.765625,0.46875 H 1.96875 V 0 C 2.375,-0.03125 2.890625,-0.03125 3.3125,-0.03125 c 0.421875,0 0.9375,0 1.359375,0.03125 v -0.3125 h -0.21875 c -0.734375,0 -0.75,-0.109375 -0.75,-0.46875 V -1.640625 H 4.6875 v -0.3125 H 3.703125 v -4.53125 c 0,-0.203125 0,-0.265625 -0.171875,-0.265625 -0.078125,0 -0.109375,0 -0.1875,0.125 l -3.0625,4.671875 v 0.3125 z m 0.046875,-0.3125 H 0.5625 l 2.421875,-3.71875 z m 0,0"
           id="id-c496cbfc-36e4-4475-9a03-c46a590b3bea" />
      </g>
      <g
         transform="translate(219.997,134.765)"
         id="g9582">
        <path
           d="m 4.578125,-3.1875 c 0,-0.796875 -0.046875,-1.59375 -0.390625,-2.328125 -0.453125,-0.96875 -1.28125,-1.125 -1.6875,-1.125 -0.609375,0 -1.328125,0.265625 -1.75,1.1875 -0.3125,0.6875 -0.359375,1.46875 -0.359375,2.265625 0,0.75 0.03125,1.640625 0.453125,2.40625 0.421875,0.796875 1.15625,1 1.640625,1 0.53125,0 1.296875,-0.203125 1.734375,-1.15625 0.3125,-0.6875 0.359375,-1.46875 0.359375,-2.25 z M 2.484375,0 C 2.09375,0 1.5,-0.25 1.328125,-1.203125 1.21875,-1.796875 1.21875,-2.71875 1.21875,-3.3125 c 0,-0.640625 0,-1.296875 0.078125,-1.828125 0.1875,-1.1875 0.9375,-1.28125 1.1875,-1.28125 0.328125,0 0.984375,0.1875 1.171875,1.171875 0.109375,0.5625 0.109375,1.3125 0.109375,1.9375 0,0.75 0,1.421875 -0.109375,2.0625 C 3.5,-0.296875 2.9375,0 2.484375,0 Z m 0,0"
           id="id-3e68c252-04cc-4609-8b11-668b831a6913" />
      </g>
    </g>
    <g
       fill="#000000"
       fill-opacity="1"
       id="id-adca0044-7d1b-437f-aec9-b7567ffe831e"
       transform="translate(-149.04,-127.843)">
      <g
         transform="translate(228.306,134.765)"
         id="g9586">
        <path
           d="m 1.09375,-0.75 c 0,0.4375 -0.109375,0.4375 -0.78125,0.4375 V 0 c 0.359375,-0.015625 0.859375,-0.03125 1.140625,-0.03125 0.25,0 0.765625,0.015625 1.109375,0.03125 v -0.3125 c -0.671875,0 -0.78125,0 -0.78125,-0.4375 V -2.59375 C 1.78125,-3.625 2.5,-4.1875 3.125,-4.1875 c 0.640625,0 0.75,0.53125 0.75,1.109375 V -0.75 c 0,0.4375 -0.109375,0.4375 -0.78125,0.4375 V 0 c 0.34375,-0.015625 0.859375,-0.03125 1.125,-0.03125 0.25,0 0.78125,0.015625 1.109375,0.03125 v -0.3125 c -0.515625,0 -0.765625,0 -0.765625,-0.296875 v -1.90625 c 0,-0.859375 0,-1.15625 -0.3125,-1.515625 -0.140625,-0.171875 -0.46875,-0.375 -1.046875,-0.375 -0.84375,0 -1.28125,0.59375 -1.453125,0.984375 v -3.5 L 0.3125,-6.8125 V -6.5 c 0.703125,0 0.78125,0.0625 0.78125,0.5625 z m 0,0"
           id="id-c4500af1-2b50-41a6-8e4a-b4f447616fcd" />
      </g>
      <g
         transform="translate(233.841,134.765)"
         id="g9589">
        <path
           d="m 3.890625,-4 c 0.09375,-0.109375 0.09375,-0.125 0.09375,-0.171875 0,-0.125 -0.09375,-0.125 -0.265625,-0.125 H 0.53125 L 0.421875,-2.6875 h 0.25 c 0.0625,-1.015625 0.25,-1.390625 1.34375,-1.390625 H 3.15625 L 0.375,-0.3125 C 0.28125,-0.203125 0.28125,-0.1875 0.28125,-0.140625 0.28125,0 0.34375,0 0.53125,0 H 3.828125 L 4,-1.859375 H 3.75 C 3.65625,-0.6875 3.453125,-0.25 2.296875,-0.25 h -1.1875 z m 0,0"
           id="id-b9e8584f-b10e-4416-9e02-52cd976411fd" />
      </g>
    </g>
    <g
       fill="#000000"
       fill-opacity="1"
       id="id-f1d493d8-c73b-49b6-b331-6002cbd9c866"
       transform="translate(-149.04,-127.843)">
      <g
         transform="translate(148.712,146.72)"
         id="g9593">
        <path
           d="m 2.265625,-3.15625 h 1.6875 c 1.1875,0 2.265625,-0.796875 2.265625,-1.796875 C 6.21875,-5.9375 5.234375,-6.8125 3.875,-6.8125 H 0.34375 V -6.5 h 0.25 c 0.765625,0 0.78125,0.109375 0.78125,0.46875 v 5.25 c 0,0.359375 -0.015625,0.46875 -0.78125,0.46875 h -0.25 V 0 c 0.359375,-0.03125 1.09375,-0.03125 1.46875,-0.03125 0.375,0 1.125,0 1.484375,0.03125 v -0.3125 h -0.25 c -0.765625,0 -0.78125,-0.109375 -0.78125,-0.46875 z m -0.03125,-0.25 v -2.6875 C 2.234375,-6.4375 2.25,-6.5 2.71875,-6.5 h 0.890625 c 1.578125,0 1.578125,1.0625 1.578125,1.546875 0,0.46875 0,1.546875 -1.578125,1.546875 z m 0,0"
           id="id-3d827c05-d3ec-4617-8cf3-5133bd6faf18" />
      </g>
    </g>
    <g
       fill="#000000"
       fill-opacity="1"
       id="id-b76772eb-5bf5-47cd-9ed0-1e31ee631552"
       transform="translate(-149.04,-127.843)">
      <g
         transform="translate(155.214,146.72)"
         id="g9597">
        <path
           d="M 1.109375,-2.515625 C 1.171875,-4 2.015625,-4.25 2.359375,-4.25 c 1.015625,0 1.125,1.34375 1.125,1.734375 z m 0,0.21875 h 2.78125 c 0.21875,0 0.25,0 0.25,-0.21875 0,-0.984375 -0.546875,-1.953125 -1.78125,-1.953125 -1.15625,0 -2.078125,1.03125 -2.078125,2.28125 0,1.328125 1.046875,2.296875 2.1875,2.296875 C 3.6875,0.109375 4.140625,-1 4.140625,-1.1875 4.140625,-1.28125 4.0625,-1.3125 4,-1.3125 c -0.078125,0 -0.109375,0.0625 -0.125,0.140625 -0.34375,1.03125 -1.25,1.03125 -1.34375,1.03125 -0.5,0 -0.890625,-0.296875 -1.125,-0.671875 -0.296875,-0.46875 -0.296875,-1.125 -0.296875,-1.484375 z m 0,0"
           id="id-8c4dd979-11d2-4914-9e1d-a29e82d6ec2f" />
      </g>
      <g
         transform="translate(159.641,146.72)"
         id="g9600">
        <path
           d="M 1.671875,-3.3125 V -4.40625 L 0.28125,-4.296875 v 0.3125 c 0.703125,0 0.78125,0.0625 0.78125,0.5625 V -0.75 c 0,0.4375 -0.109375,0.4375 -0.78125,0.4375 V 0 c 0.390625,-0.015625 0.859375,-0.03125 1.140625,-0.03125 0.390625,0 0.859375,0 1.265625,0.03125 V -0.3125 H 2.46875 c -0.734375,0 -0.75,-0.109375 -0.75,-0.46875 V -2.3125 c 0,-0.984375 0.421875,-1.875 1.171875,-1.875 0.0625,0 0.09375,0 0.109375,0.015625 -0.03125,0 -0.234375,0.125 -0.234375,0.390625 0,0.265625 0.21875,0.421875 0.4375,0.421875 0.171875,0 0.421875,-0.125 0.421875,-0.4375 0,-0.3125 -0.3125,-0.609375 -0.734375,-0.609375 -0.734375,0 -1.09375,0.671875 -1.21875,1.09375 z m 0,0"
           id="id-1be0a241-e290-48fc-a024-526fb4075c82" />
      </g>
    </g>
    <g
       fill="#000000"
       fill-opacity="1"
       id="id-e63ccf88-eed0-40ff-b423-bfc1d3c10968"
       transform="translate(-149.04,-127.843)">
      <g
         transform="translate(162.437,146.72)"
         id="g9604">
        <path
           d="M 3.734375,-6.296875 C 3.828125,-6.375 3.90625,-6.484375 3.90625,-6.59375 c 0,-0.1875 -0.171875,-0.359375 -0.359375,-0.359375 -0.140625,0 -0.25,0.109375 -0.296875,0.171875 l -1.203125,1.515625 0.171875,0.1875 z m 0,0"
           id="id-3ba9d2bf-4cef-4c8d-a5c2-b8c1df2a35a0" />
      </g>
    </g>
    <g
       fill="#000000"
       fill-opacity="1"
       id="id-1bc64dae-b38b-4420-b0cf-e0502f42b08f"
       transform="translate(-149.04,-127.843)">
      <g
         transform="translate(163.543,146.72)"
         id="g9608">
        <path
           d="M 1.765625,-4.40625 0.375,-4.296875 v 0.3125 c 0.640625,0 0.734375,0.0625 0.734375,0.546875 V -0.75 c 0,0.4375 -0.109375,0.4375 -0.78125,0.4375 V 0 C 0.640625,-0.015625 1.1875,-0.03125 1.421875,-0.03125 1.78125,-0.03125 2.125,-0.015625 2.46875,0 v -0.3125 c -0.671875,0 -0.703125,-0.046875 -0.703125,-0.4375 z m 0,0"
           id="id-fed4fcdc-1096-406d-bbcd-438ea2e0c9f3" />
      </g>
      <g
         transform="translate(166.311,146.72)"
         id="g9611">
        <path
           d="M 4.6875,-2.140625 C 4.6875,-3.40625 3.703125,-4.46875 2.5,-4.46875 c -1.25,0 -2.21875,1.09375 -2.21875,2.328125 0,1.296875 1.03125,2.25 2.203125,2.25 1.203125,0 2.203125,-0.984375 2.203125,-2.25 z m -2.1875,2 c -0.4375,0 -0.875,-0.203125 -1.140625,-0.671875 -0.25,-0.4375 -0.25,-1.046875 -0.25,-1.40625 0,-0.390625 0,-0.921875 0.234375,-1.359375 C 1.609375,-4.03125 2.078125,-4.25 2.484375,-4.25 c 0.4375,0 0.859375,0.21875 1.125,0.65625 0.265625,0.421875 0.265625,1 0.265625,1.375 0,0.359375 0,0.90625 -0.21875,1.34375 C 3.421875,-0.421875 2.984375,-0.140625 2.5,-0.140625 Z m 0,0"
           id="id-a6440d63-ea80-4cf8-9f67-6f4066e8c55e" />
      </g>
    </g>
    <g
       fill="#000000"
       fill-opacity="1"
       id="id-4d7bdf5b-2973-4ddf-ab5f-12c08fcb2fbe"
       transform="translate(-149.04,-127.843)">
      <g
         transform="translate(171.571,146.72)"
         id="g9615">
        <path
           d="m 3.78125,-0.546875 v 0.65625 L 5.25,0 v -0.3125 c -0.6875,0 -0.78125,-0.0625 -0.78125,-0.5625 V -6.921875 L 3.046875,-6.8125 V -6.5 c 0.6875,0 0.765625,0.0625 0.765625,0.5625 v 2.15625 c -0.28125,-0.359375 -0.71875,-0.625 -1.25,-0.625 -1.171875,0 -2.21875,0.984375 -2.21875,2.265625 0,1.265625 0.96875,2.25 2.109375,2.25 0.640625,0 1.078125,-0.34375 1.328125,-0.65625 z m 0,-2.671875 v 2.046875 c 0,0.171875 0,0.1875 -0.109375,0.359375 C 3.375,-0.328125 2.9375,-0.109375 2.5,-0.109375 2.046875,-0.109375 1.6875,-0.375 1.453125,-0.75 1.203125,-1.15625 1.171875,-1.71875 1.171875,-2.140625 1.171875,-2.5 1.1875,-3.09375 1.46875,-3.546875 1.6875,-3.859375 2.0625,-4.1875 2.609375,-4.1875 c 0.34375,0 0.765625,0.15625 1.0625,0.59375 0.109375,0.171875 0.109375,0.1875 0.109375,0.375 z m 0,0"
           id="id-bbfb89df-5647-4b41-b5f3-b6aa7aab416f" />
      </g>
      <g
         transform="translate(177.106,146.72)"
         id="g9618">
        <path
           d="M 4.6875,-2.140625 C 4.6875,-3.40625 3.703125,-4.46875 2.5,-4.46875 c -1.25,0 -2.21875,1.09375 -2.21875,2.328125 0,1.296875 1.03125,2.25 2.203125,2.25 1.203125,0 2.203125,-0.984375 2.203125,-2.25 z m -2.1875,2 c -0.4375,0 -0.875,-0.203125 -1.140625,-0.671875 -0.25,-0.4375 -0.25,-1.046875 -0.25,-1.40625 0,-0.390625 0,-0.921875 0.234375,-1.359375 C 1.609375,-4.03125 2.078125,-4.25 2.484375,-4.25 c 0.4375,0 0.859375,0.21875 1.125,0.65625 0.265625,0.421875 0.265625,1 0.265625,1.375 0,0.359375 0,0.90625 -0.21875,1.34375 C 3.421875,-0.421875 2.984375,-0.140625 2.5,-0.140625 Z m 0,0"
           id="id-0515df85-c0eb-43d0-8391-cf35cbbec64a" />
      </g>
    </g>
    <g
       fill="#000000"
       fill-opacity="1"
       id="id-43208875-ee88-4034-8103-344eea3bd95c"
       transform="translate(-149.04,-127.843)">
      <g
         transform="translate(185.405,146.72)"
         id="g9622">
        <path
           d="m 6.84375,-3.265625 c 0.15625,0 0.34375,0 0.34375,-0.1875 C 7.1875,-3.65625 7,-3.65625 6.859375,-3.65625 h -5.96875 c -0.140625,0 -0.328125,0 -0.328125,0.203125 0,0.1875 0.1875,0.1875 0.328125,0.1875 z m 0.015625,1.9375 c 0.140625,0 0.328125,0 0.328125,-0.203125 0,-0.1875 -0.1875,-0.1875 -0.34375,-0.1875 H 0.890625 c -0.140625,0 -0.328125,0 -0.328125,0.1875 0,0.203125 0.1875,0.203125 0.328125,0.203125 z m 0,0"
           id="id-9193d2a7-52d9-4dc9-ba40-46f93859c7c7" />
      </g>
    </g>
    <g
       fill="#000000"
       fill-opacity="1"
       id="id-d8a6f7c0-526c-4373-8e5c-d5bc114172e0"
       transform="translate(-149.04,-127.843)">
      <g
         transform="translate(196.482,146.72)"
         id="g9626">
        <path
           d="m 1.265625,-0.765625 1.0625,-1.03125 c 1.546875,-1.375 2.140625,-1.90625 2.140625,-2.90625 0,-1.140625 -0.890625,-1.9375 -2.109375,-1.9375 -1.125,0 -1.859375,0.921875 -1.859375,1.8125 0,0.546875 0.5,0.546875 0.53125,0.546875 0.171875,0 0.515625,-0.109375 0.515625,-0.53125 0,-0.25 -0.1875,-0.515625 -0.53125,-0.515625 -0.078125,0 -0.09375,0 -0.125,0.015625 0.21875,-0.65625 0.765625,-1.015625 1.34375,-1.015625 0.90625,0 1.328125,0.8125 1.328125,1.625 C 3.5625,-3.90625 3.078125,-3.125 2.515625,-2.5 l -1.90625,2.125 C 0.5,-0.265625 0.5,-0.234375 0.5,0 H 4.203125 L 4.46875,-1.734375 H 4.234375 C 4.171875,-1.4375 4.109375,-1 4,-0.84375 3.9375,-0.765625 3.28125,-0.765625 3.0625,-0.765625 Z m 0,0"
           id="id-f9255217-086c-48e9-a7f9-40c4c42e5d6a" />
      </g>
      <g
         transform="translate(201.463,146.72)"
         id="g9629">
        <path
           d="m 2.03125,-0.015625 c 0,-0.625 -0.25,-1.046875 -0.640625,-1.046875 -0.359375,0 -0.53125,0.28125 -0.53125,0.53125 0,0.265625 0.171875,0.53125 0.53125,0.53125 0.15625,0 0.28125,-0.0625 0.375,-0.140625 L 1.78125,-0.15625 c 0.015625,0 0.015625,0 0.015625,0.140625 0,0.640625 -0.265625,1.25 -0.703125,1.71875 -0.0625,0.0625 -0.078125,0.078125 -0.078125,0.109375 0,0.078125 0.046875,0.109375 0.09375,0.109375 0.125,0 0.921875,-0.78125 0.921875,-1.9375 z m 0,0"
           id="id-1a85f348-66e2-4476-ad32-c25552242825" />
      </g>
      <g
         transform="translate(204.231,146.72)"
         id="g9632">
        <path
           d="m 1.265625,-0.765625 1.0625,-1.03125 c 1.546875,-1.375 2.140625,-1.90625 2.140625,-2.90625 0,-1.140625 -0.890625,-1.9375 -2.109375,-1.9375 -1.125,0 -1.859375,0.921875 -1.859375,1.8125 0,0.546875 0.5,0.546875 0.53125,0.546875 0.171875,0 0.515625,-0.109375 0.515625,-0.53125 0,-0.25 -0.1875,-0.515625 -0.53125,-0.515625 -0.078125,0 -0.09375,0 -0.125,0.015625 0.21875,-0.65625 0.765625,-1.015625 1.34375,-1.015625 0.90625,0 1.328125,0.8125 1.328125,1.625 C 3.5625,-3.90625 3.078125,-3.125 2.515625,-2.5 l -1.90625,2.125 C 0.5,-0.265625 0.5,-0.234375 0.5,0 H 4.203125 L 4.46875,-1.734375 H 4.234375 C 4.171875,-1.4375 4.109375,-1 4,-0.84375 3.9375,-0.765625 3.28125,-0.765625 3.0625,-0.765625 Z m 0,0"
           id="id-ffc3ad19-b17d-4322-af85-1d94c11937bc" />
      </g>
      <g
         transform="translate(209.212,146.72)"
         id="g9635">
        <path
           d="m 4.75,-6.078125 c 0.078125,-0.109375 0.078125,-0.125 0.078125,-0.34375 H 2.40625 c -1.203125,0 -1.234375,-0.125 -1.265625,-0.3125 h -0.25 L 0.5625,-4.6875 h 0.25 c 0.03125,-0.15625 0.109375,-0.78125 0.25,-0.90625 0.0625,-0.0625 0.84375,-0.0625 0.96875,-0.0625 h 2.0625 C 3.984375,-5.5 3.203125,-4.40625 2.984375,-4.078125 2.078125,-2.734375 1.75,-1.34375 1.75,-0.328125 c 0,0.09375 0,0.546875 0.46875,0.546875 0.453125,0 0.453125,-0.453125 0.453125,-0.546875 V -0.84375 c 0,-0.546875 0.03125,-1.09375 0.109375,-1.625 0.046875,-0.234375 0.171875,-1.09375 0.625,-1.703125 z m 0,0"
           id="id-5722076b-bb95-45a1-a121-e3844ccc3295" />
      </g>
    </g>
    <g
       fill="#000000"
       fill-opacity="1"
       id="id-cf24b483-5b70-4ffa-b480-70cbac774853"
       transform="translate(-149.04,-127.843)">
      <g
         transform="translate(217.511,146.72)"
         id="g9639">
        <path
           d="M 1.09375,-3.421875 V -0.75 c 0,0.4375 -0.109375,0.4375 -0.78125,0.4375 V 0 c 0.359375,-0.015625 0.859375,-0.03125 1.140625,-0.03125 0.25,0 0.765625,0.015625 1.109375,0.03125 v -0.3125 c -0.671875,0 -0.78125,0 -0.78125,-0.4375 V -2.59375 C 1.78125,-3.625 2.5,-4.1875 3.125,-4.1875 c 0.640625,0 0.75,0.53125 0.75,1.109375 V -0.75 c 0,0.4375 -0.109375,0.4375 -0.78125,0.4375 V 0 c 0.34375,-0.015625 0.859375,-0.03125 1.125,-0.03125 0.25,0 0.78125,0.015625 1.109375,0.03125 v -0.3125 c -0.65625,0 -0.765625,0 -0.765625,-0.4375 v -1.84375 c 0,-1.03125 0.703125,-1.59375 1.34375,-1.59375 0.625,0 0.734375,0.53125 0.734375,1.109375 V -0.75 c 0,0.4375 -0.109375,0.4375 -0.78125,0.4375 V 0 c 0.34375,-0.015625 0.859375,-0.03125 1.125,-0.03125 0.265625,0 0.78125,0.015625 1.125,0.03125 v -0.3125 c -0.515625,0 -0.765625,0 -0.78125,-0.296875 v -1.90625 c 0,-0.859375 0,-1.15625 -0.3125,-1.515625 -0.140625,-0.171875 -0.46875,-0.375 -1.046875,-0.375 -0.828125,0 -1.28125,0.59375 -1.4375,0.984375 C 4.390625,-4.296875 3.65625,-4.40625 3.203125,-4.40625 2.46875,-4.40625 2,-3.984375 1.71875,-3.359375 V -4.40625 L 0.3125,-4.296875 v 0.3125 c 0.703125,0 0.78125,0.0625 0.78125,0.5625 z m 0,0"
           id="id-9361ca39-61f6-4dc8-b767-5c2eda902742" />
      </g>
      <g
         transform="translate(225.813,146.72)"
         id="g9642">
        <path
           d="m 2.078125,-1.9375 c 0.21875,0.046875 1.03125,0.203125 1.03125,0.921875 0,0.5 -0.34375,0.90625 -1.125,0.90625 -0.84375,0 -1.203125,-0.5625 -1.390625,-1.421875 C 0.5625,-1.65625 0.5625,-1.6875 0.453125,-1.6875 c -0.125,0 -0.125,0.0625 -0.125,0.234375 V -0.125 c 0,0.171875 0,0.234375 0.109375,0.234375 0.046875,0 0.0625,-0.015625 0.25,-0.203125 0.015625,-0.015625 0.015625,-0.03125 0.203125,-0.21875 0.4375,0.40625 0.890625,0.421875 1.09375,0.421875 1.140625,0 1.609375,-0.671875 1.609375,-1.390625 0,-0.515625 -0.296875,-0.828125 -0.421875,-0.9375 C 2.84375,-2.546875 2.453125,-2.625 2.03125,-2.703125 1.46875,-2.8125 0.8125,-2.9375 0.8125,-3.515625 c 0,-0.359375 0.25,-0.765625 1.109375,-0.765625 1.09375,0 1.15625,0.90625 1.171875,1.203125 0,0.09375 0.09375,0.09375 0.109375,0.09375 0.140625,0 0.140625,-0.046875 0.140625,-0.234375 v -1.015625 c 0,-0.15625 0,-0.234375 -0.109375,-0.234375 -0.046875,0 -0.078125,0 -0.203125,0.125 -0.03125,0.03125 -0.125,0.125 -0.171875,0.15625 -0.375,-0.28125 -0.78125,-0.28125 -0.9375,-0.28125 -1.21875,0 -1.59375,0.671875 -1.59375,1.234375 0,0.34375 0.15625,0.625 0.421875,0.84375 0.328125,0.25 0.609375,0.3125 1.328125,0.453125 z m 0,0"
           id="id-f401dca6-a234-4bd8-a2e0-915a0c94eb97" />
      </g>
    </g>
  </g>
</svg>
